G04 #@! TF.GenerationSoftware,KiCad,Pcbnew,(6.0.7)*
G04 #@! TF.CreationDate,2023-02-18T18:42:52+09:00*
G04 #@! TF.ProjectId,driver,64726976-6572-42e6-9b69-6361645f7063,rev?*
G04 #@! TF.SameCoordinates,Original*
G04 #@! TF.FileFunction,Legend,Top*
G04 #@! TF.FilePolarity,Positive*
%FSLAX46Y46*%
G04 Gerber Fmt 4.6, Leading zero omitted, Abs format (unit mm)*
G04 Created by KiCad (PCBNEW (6.0.7)) date 2023-02-18 18:42:52*
%MOMM*%
%LPD*%
G01*
G04 APERTURE LIST*
G04 Aperture macros list*
%AMRoundRect*
0 Rectangle with rounded corners*
0 $1 Rounding radius*
0 $2 $3 $4 $5 $6 $7 $8 $9 X,Y pos of 4 corners*
0 Add a 4 corners polygon primitive as box body*
4,1,4,$2,$3,$4,$5,$6,$7,$8,$9,$2,$3,0*
0 Add four circle primitives for the rounded corners*
1,1,$1+$1,$2,$3*
1,1,$1+$1,$4,$5*
1,1,$1+$1,$6,$7*
1,1,$1+$1,$8,$9*
0 Add four rect primitives between the rounded corners*
20,1,$1+$1,$2,$3,$4,$5,0*
20,1,$1+$1,$4,$5,$6,$7,0*
20,1,$1+$1,$6,$7,$8,$9,0*
20,1,$1+$1,$8,$9,$2,$3,0*%
G04 Aperture macros list end*
%ADD10C,0.300000*%
%ADD11C,0.150000*%
%ADD12C,0.120000*%
%ADD13O,1.700000X1.700000*%
%ADD14R,1.700000X1.700000*%
%ADD15C,1.524000*%
%ADD16RoundRect,0.250000X0.350000X0.450000X-0.350000X0.450000X-0.350000X-0.450000X0.350000X-0.450000X0*%
%ADD17R,1.600000X1.600000*%
%ADD18C,1.600000*%
%ADD19RoundRect,0.237500X0.237500X-0.250000X0.237500X0.250000X-0.237500X0.250000X-0.237500X-0.250000X0*%
%ADD20RoundRect,0.250000X-0.350000X-0.450000X0.350000X-0.450000X0.350000X0.450000X-0.350000X0.450000X0*%
%ADD21R,3.500000X3.500000*%
%ADD22RoundRect,0.750000X-1.000000X0.750000X-1.000000X-0.750000X1.000000X-0.750000X1.000000X0.750000X0*%
%ADD23RoundRect,0.875000X-0.875000X0.875000X-0.875000X-0.875000X0.875000X-0.875000X0.875000X0.875000X0*%
%ADD24RoundRect,0.237500X0.237500X-0.287500X0.237500X0.287500X-0.237500X0.287500X-0.237500X-0.287500X0*%
%ADD25RoundRect,0.250000X-0.450000X0.350000X-0.450000X-0.350000X0.450000X-0.350000X0.450000X0.350000X0*%
%ADD26R,0.650000X1.050000*%
%ADD27RoundRect,0.237500X-0.237500X0.300000X-0.237500X-0.300000X0.237500X-0.300000X0.237500X0.300000X0*%
G04 APERTURE END LIST*
D10*
X87096428Y-147846428D02*
X87810714Y-147346428D01*
X87096428Y-146989285D02*
X88596428Y-146989285D01*
X88596428Y-147560714D01*
X88525000Y-147703571D01*
X88453571Y-147775000D01*
X88310714Y-147846428D01*
X88096428Y-147846428D01*
X87953571Y-147775000D01*
X87882142Y-147703571D01*
X87810714Y-147560714D01*
X87810714Y-146989285D01*
X87239285Y-148489285D02*
X87167857Y-148560714D01*
X87096428Y-148489285D01*
X87167857Y-148417857D01*
X87239285Y-148489285D01*
X87096428Y-148489285D01*
X88596428Y-148989285D02*
X88596428Y-149846428D01*
X87096428Y-149417857D02*
X88596428Y-149417857D01*
X87167857Y-150917857D02*
X87096428Y-150775000D01*
X87096428Y-150489285D01*
X87167857Y-150346428D01*
X87310714Y-150275000D01*
X87882142Y-150275000D01*
X88025000Y-150346428D01*
X88096428Y-150489285D01*
X88096428Y-150775000D01*
X88025000Y-150917857D01*
X87882142Y-150989285D01*
X87739285Y-150989285D01*
X87596428Y-150275000D01*
X87096428Y-151632142D02*
X88096428Y-151632142D01*
X87810714Y-151632142D02*
X87953571Y-151703571D01*
X88025000Y-151775000D01*
X88096428Y-151917857D01*
X88096428Y-152060714D01*
X88096428Y-153203571D02*
X87096428Y-153203571D01*
X88096428Y-152560714D02*
X87310714Y-152560714D01*
X87167857Y-152632142D01*
X87096428Y-152775000D01*
X87096428Y-152989285D01*
X87167857Y-153132142D01*
X87239285Y-153203571D01*
X88096428Y-153917857D02*
X87096428Y-153917857D01*
X87953571Y-153917857D02*
X88025000Y-153989285D01*
X88096428Y-154132142D01*
X88096428Y-154346428D01*
X88025000Y-154489285D01*
X87882142Y-154560714D01*
X87096428Y-154560714D01*
X88096428Y-155917857D02*
X87096428Y-155917857D01*
X88096428Y-155275000D02*
X87310714Y-155275000D01*
X87167857Y-155346428D01*
X87096428Y-155489285D01*
X87096428Y-155703571D01*
X87167857Y-155846428D01*
X87239285Y-155917857D01*
X87096428Y-156632142D02*
X88096428Y-156632142D01*
X87953571Y-156632142D02*
X88025000Y-156703571D01*
X88096428Y-156846428D01*
X88096428Y-157060714D01*
X88025000Y-157203571D01*
X87882142Y-157275000D01*
X87096428Y-157275000D01*
X87882142Y-157275000D02*
X88025000Y-157346428D01*
X88096428Y-157489285D01*
X88096428Y-157703571D01*
X88025000Y-157846428D01*
X87882142Y-157917857D01*
X87096428Y-157917857D01*
X87096428Y-159275000D02*
X87882142Y-159275000D01*
X88025000Y-159203571D01*
X88096428Y-159060714D01*
X88096428Y-158775000D01*
X88025000Y-158632142D01*
X87167857Y-159275000D02*
X87096428Y-159132142D01*
X87096428Y-158775000D01*
X87167857Y-158632142D01*
X87310714Y-158560714D01*
X87453571Y-158560714D01*
X87596428Y-158632142D01*
X87667857Y-158775000D01*
X87667857Y-159132142D01*
X87739285Y-159275000D01*
X88453571Y-161060714D02*
X88525000Y-161132142D01*
X88596428Y-161275000D01*
X88596428Y-161632142D01*
X88525000Y-161775000D01*
X88453571Y-161846428D01*
X88310714Y-161917857D01*
X88167857Y-161917857D01*
X87953571Y-161846428D01*
X87096428Y-160989285D01*
X87096428Y-161917857D01*
X88596428Y-162846428D02*
X88596428Y-162989285D01*
X88525000Y-163132142D01*
X88453571Y-163203571D01*
X88310714Y-163275000D01*
X88025000Y-163346428D01*
X87667857Y-163346428D01*
X87382142Y-163275000D01*
X87239285Y-163203571D01*
X87167857Y-163132142D01*
X87096428Y-162989285D01*
X87096428Y-162846428D01*
X87167857Y-162703571D01*
X87239285Y-162632142D01*
X87382142Y-162560714D01*
X87667857Y-162489285D01*
X88025000Y-162489285D01*
X88310714Y-162560714D01*
X88453571Y-162632142D01*
X88525000Y-162703571D01*
X88596428Y-162846428D01*
X88453571Y-163917857D02*
X88525000Y-163989285D01*
X88596428Y-164132142D01*
X88596428Y-164489285D01*
X88525000Y-164632142D01*
X88453571Y-164703571D01*
X88310714Y-164775000D01*
X88167857Y-164775000D01*
X87953571Y-164703571D01*
X87096428Y-163846428D01*
X87096428Y-164775000D01*
X88596428Y-165275000D02*
X88596428Y-166203571D01*
X88025000Y-165703571D01*
X88025000Y-165917857D01*
X87953571Y-166060714D01*
X87882142Y-166132142D01*
X87739285Y-166203571D01*
X87382142Y-166203571D01*
X87239285Y-166132142D01*
X87167857Y-166060714D01*
X87096428Y-165917857D01*
X87096428Y-165489285D01*
X87167857Y-165346428D01*
X87239285Y-165275000D01*
X87667857Y-166846428D02*
X87667857Y-167989285D01*
X88596428Y-168989285D02*
X88596428Y-169132142D01*
X88525000Y-169275000D01*
X88453571Y-169346428D01*
X88310714Y-169417857D01*
X88025000Y-169489285D01*
X87667857Y-169489285D01*
X87382142Y-169417857D01*
X87239285Y-169346428D01*
X87167857Y-169275000D01*
X87096428Y-169132142D01*
X87096428Y-168989285D01*
X87167857Y-168846428D01*
X87239285Y-168775000D01*
X87382142Y-168703571D01*
X87667857Y-168632142D01*
X88025000Y-168632142D01*
X88310714Y-168703571D01*
X88453571Y-168775000D01*
X88525000Y-168846428D01*
X88596428Y-168989285D01*
X88453571Y-170060714D02*
X88525000Y-170132142D01*
X88596428Y-170275000D01*
X88596428Y-170632142D01*
X88525000Y-170775000D01*
X88453571Y-170846428D01*
X88310714Y-170917857D01*
X88167857Y-170917857D01*
X87953571Y-170846428D01*
X87096428Y-169989285D01*
X87096428Y-170917857D01*
X87667857Y-171560714D02*
X87667857Y-172703571D01*
X87096428Y-174203571D02*
X87096428Y-173346428D01*
X87096428Y-173775000D02*
X88596428Y-173775000D01*
X88382142Y-173632142D01*
X88239285Y-173489285D01*
X88167857Y-173346428D01*
X87953571Y-175060714D02*
X88025000Y-174917857D01*
X88096428Y-174846428D01*
X88239285Y-174775000D01*
X88310714Y-174775000D01*
X88453571Y-174846428D01*
X88525000Y-174917857D01*
X88596428Y-175060714D01*
X88596428Y-175346428D01*
X88525000Y-175489285D01*
X88453571Y-175560714D01*
X88310714Y-175632142D01*
X88239285Y-175632142D01*
X88096428Y-175560714D01*
X88025000Y-175489285D01*
X87953571Y-175346428D01*
X87953571Y-175060714D01*
X87882142Y-174917857D01*
X87810714Y-174846428D01*
X87667857Y-174775000D01*
X87382142Y-174775000D01*
X87239285Y-174846428D01*
X87167857Y-174917857D01*
X87096428Y-175060714D01*
X87096428Y-175346428D01*
X87167857Y-175489285D01*
X87239285Y-175560714D01*
X87382142Y-175632142D01*
X87667857Y-175632142D01*
X87810714Y-175560714D01*
X87882142Y-175489285D01*
X87953571Y-175346428D01*
D11*
X140916666Y-139007380D02*
X140916666Y-139721666D01*
X140869047Y-139864523D01*
X140773809Y-139959761D01*
X140630952Y-140007380D01*
X140535714Y-140007380D01*
X141821428Y-139007380D02*
X141630952Y-139007380D01*
X141535714Y-139055000D01*
X141488095Y-139102619D01*
X141392857Y-139245476D01*
X141345238Y-139435952D01*
X141345238Y-139816904D01*
X141392857Y-139912142D01*
X141440476Y-139959761D01*
X141535714Y-140007380D01*
X141726190Y-140007380D01*
X141821428Y-139959761D01*
X141869047Y-139912142D01*
X141916666Y-139816904D01*
X141916666Y-139578809D01*
X141869047Y-139483571D01*
X141821428Y-139435952D01*
X141726190Y-139388333D01*
X141535714Y-139388333D01*
X141440476Y-139435952D01*
X141392857Y-139483571D01*
X141345238Y-139578809D01*
X122580495Y-132345180D02*
X122580495Y-133154704D01*
X122628114Y-133249942D01*
X122675733Y-133297561D01*
X122770971Y-133345180D01*
X122961447Y-133345180D01*
X123056685Y-133297561D01*
X123104304Y-133249942D01*
X123151923Y-133154704D01*
X123151923Y-132345180D01*
X124056685Y-132345180D02*
X123866209Y-132345180D01*
X123770971Y-132392800D01*
X123723352Y-132440419D01*
X123628114Y-132583276D01*
X123580495Y-132773752D01*
X123580495Y-133154704D01*
X123628114Y-133249942D01*
X123675733Y-133297561D01*
X123770971Y-133345180D01*
X123961447Y-133345180D01*
X124056685Y-133297561D01*
X124104304Y-133249942D01*
X124151923Y-133154704D01*
X124151923Y-132916609D01*
X124104304Y-132821371D01*
X124056685Y-132773752D01*
X123961447Y-132726133D01*
X123770971Y-132726133D01*
X123675733Y-132773752D01*
X123628114Y-132821371D01*
X123580495Y-132916609D01*
X119737142Y-116402380D02*
X119403809Y-115926190D01*
X119165714Y-116402380D02*
X119165714Y-115402380D01*
X119546666Y-115402380D01*
X119641904Y-115450000D01*
X119689523Y-115497619D01*
X119737142Y-115592857D01*
X119737142Y-115735714D01*
X119689523Y-115830952D01*
X119641904Y-115878571D01*
X119546666Y-115926190D01*
X119165714Y-115926190D01*
X120689523Y-116402380D02*
X120118095Y-116402380D01*
X120403809Y-116402380D02*
X120403809Y-115402380D01*
X120308571Y-115545238D01*
X120213333Y-115640476D01*
X120118095Y-115688095D01*
X121641904Y-116402380D02*
X121070476Y-116402380D01*
X121356190Y-116402380D02*
X121356190Y-115402380D01*
X121260952Y-115545238D01*
X121165714Y-115640476D01*
X121070476Y-115688095D01*
X129373333Y-157837142D02*
X129325714Y-157884761D01*
X129182857Y-157932380D01*
X129087619Y-157932380D01*
X128944761Y-157884761D01*
X128849523Y-157789523D01*
X128801904Y-157694285D01*
X128754285Y-157503809D01*
X128754285Y-157360952D01*
X128801904Y-157170476D01*
X128849523Y-157075238D01*
X128944761Y-156980000D01*
X129087619Y-156932380D01*
X129182857Y-156932380D01*
X129325714Y-156980000D01*
X129373333Y-157027619D01*
X129706666Y-156932380D02*
X130373333Y-156932380D01*
X129944761Y-157932380D01*
X122580495Y-51292380D02*
X122580495Y-52101904D01*
X122628114Y-52197142D01*
X122675733Y-52244761D01*
X122770971Y-52292380D01*
X122961447Y-52292380D01*
X123056685Y-52244761D01*
X123104304Y-52197142D01*
X123151923Y-52101904D01*
X123151923Y-51292380D01*
X124151923Y-52292380D02*
X123580495Y-52292380D01*
X123866209Y-52292380D02*
X123866209Y-51292380D01*
X123770971Y-51435238D01*
X123675733Y-51530476D01*
X123580495Y-51578095D01*
X91270380Y-83278666D02*
X90794190Y-83612000D01*
X91270380Y-83850095D02*
X90270380Y-83850095D01*
X90270380Y-83469142D01*
X90318000Y-83373904D01*
X90365619Y-83326285D01*
X90460857Y-83278666D01*
X90603714Y-83278666D01*
X90698952Y-83326285D01*
X90746571Y-83373904D01*
X90794190Y-83469142D01*
X90794190Y-83850095D01*
X90270380Y-82945333D02*
X90270380Y-82326285D01*
X90651333Y-82659619D01*
X90651333Y-82516761D01*
X90698952Y-82421523D01*
X90746571Y-82373904D01*
X90841809Y-82326285D01*
X91079904Y-82326285D01*
X91175142Y-82373904D01*
X91222761Y-82421523D01*
X91270380Y-82516761D01*
X91270380Y-82802476D01*
X91222761Y-82897714D01*
X91175142Y-82945333D01*
X119737142Y-151202380D02*
X119403809Y-150726190D01*
X119165714Y-151202380D02*
X119165714Y-150202380D01*
X119546666Y-150202380D01*
X119641904Y-150250000D01*
X119689523Y-150297619D01*
X119737142Y-150392857D01*
X119737142Y-150535714D01*
X119689523Y-150630952D01*
X119641904Y-150678571D01*
X119546666Y-150726190D01*
X119165714Y-150726190D01*
X120689523Y-151202380D02*
X120118095Y-151202380D01*
X120403809Y-151202380D02*
X120403809Y-150202380D01*
X120308571Y-150345238D01*
X120213333Y-150440476D01*
X120118095Y-150488095D01*
X121546666Y-150535714D02*
X121546666Y-151202380D01*
X121308571Y-150154761D02*
X121070476Y-150869047D01*
X121689523Y-150869047D01*
X128263880Y-26077333D02*
X128978166Y-26077333D01*
X129121023Y-26124952D01*
X129216261Y-26220190D01*
X129263880Y-26363047D01*
X129263880Y-26458285D01*
X128359119Y-25648761D02*
X128311500Y-25601142D01*
X128263880Y-25505904D01*
X128263880Y-25267809D01*
X128311500Y-25172571D01*
X128359119Y-25124952D01*
X128454357Y-25077333D01*
X128549595Y-25077333D01*
X128692452Y-25124952D01*
X129263880Y-25696380D01*
X129263880Y-25077333D01*
X122580495Y-155205180D02*
X122580495Y-156014704D01*
X122628114Y-156109942D01*
X122675733Y-156157561D01*
X122770971Y-156205180D01*
X122961447Y-156205180D01*
X123056685Y-156157561D01*
X123104304Y-156109942D01*
X123151923Y-156014704D01*
X123151923Y-155205180D01*
X123532876Y-155205180D02*
X124199542Y-155205180D01*
X123770971Y-156205180D01*
X122580495Y-109485180D02*
X122580495Y-110294704D01*
X122628114Y-110389942D01*
X122675733Y-110437561D01*
X122770971Y-110485180D01*
X122961447Y-110485180D01*
X123056685Y-110437561D01*
X123104304Y-110389942D01*
X123151923Y-110294704D01*
X123151923Y-109485180D01*
X124104304Y-109485180D02*
X123628114Y-109485180D01*
X123580495Y-109961371D01*
X123628114Y-109913752D01*
X123723352Y-109866133D01*
X123961447Y-109866133D01*
X124056685Y-109913752D01*
X124104304Y-109961371D01*
X124151923Y-110056609D01*
X124151923Y-110294704D01*
X124104304Y-110389942D01*
X124056685Y-110437561D01*
X123961447Y-110485180D01*
X123723352Y-110485180D01*
X123628114Y-110437561D01*
X123580495Y-110389942D01*
X89238380Y-110647095D02*
X88238380Y-110647095D01*
X88238380Y-110409000D01*
X88286000Y-110266142D01*
X88381238Y-110170904D01*
X88476476Y-110123285D01*
X88666952Y-110075666D01*
X88809809Y-110075666D01*
X89000285Y-110123285D01*
X89095523Y-110170904D01*
X89190761Y-110266142D01*
X89238380Y-110409000D01*
X89238380Y-110647095D01*
X89238380Y-109123285D02*
X89238380Y-109694714D01*
X89238380Y-109409000D02*
X88238380Y-109409000D01*
X88381238Y-109504238D01*
X88476476Y-109599476D01*
X88524095Y-109694714D01*
X94318380Y-99280666D02*
X93842190Y-99614000D01*
X94318380Y-99852095D02*
X93318380Y-99852095D01*
X93318380Y-99471142D01*
X93366000Y-99375904D01*
X93413619Y-99328285D01*
X93508857Y-99280666D01*
X93651714Y-99280666D01*
X93746952Y-99328285D01*
X93794571Y-99375904D01*
X93842190Y-99471142D01*
X93842190Y-99852095D01*
X93318380Y-98423523D02*
X93318380Y-98614000D01*
X93366000Y-98709238D01*
X93413619Y-98756857D01*
X93556476Y-98852095D01*
X93746952Y-98899714D01*
X94127904Y-98899714D01*
X94223142Y-98852095D01*
X94270761Y-98804476D01*
X94318380Y-98709238D01*
X94318380Y-98518761D01*
X94270761Y-98423523D01*
X94223142Y-98375904D01*
X94127904Y-98328285D01*
X93889809Y-98328285D01*
X93794571Y-98375904D01*
X93746952Y-98423523D01*
X93699333Y-98518761D01*
X93699333Y-98709238D01*
X93746952Y-98804476D01*
X93794571Y-98852095D01*
X93889809Y-98899714D01*
X119737142Y-105482380D02*
X119403809Y-105006190D01*
X119165714Y-105482380D02*
X119165714Y-104482380D01*
X119546666Y-104482380D01*
X119641904Y-104530000D01*
X119689523Y-104577619D01*
X119737142Y-104672857D01*
X119737142Y-104815714D01*
X119689523Y-104910952D01*
X119641904Y-104958571D01*
X119546666Y-105006190D01*
X119165714Y-105006190D01*
X120689523Y-105482380D02*
X120118095Y-105482380D01*
X120403809Y-105482380D02*
X120403809Y-104482380D01*
X120308571Y-104625238D01*
X120213333Y-104720476D01*
X120118095Y-104768095D01*
X121308571Y-104482380D02*
X121403809Y-104482380D01*
X121499047Y-104530000D01*
X121546666Y-104577619D01*
X121594285Y-104672857D01*
X121641904Y-104863333D01*
X121641904Y-105101428D01*
X121594285Y-105291904D01*
X121546666Y-105387142D01*
X121499047Y-105434761D01*
X121403809Y-105482380D01*
X121308571Y-105482380D01*
X121213333Y-105434761D01*
X121165714Y-105387142D01*
X121118095Y-105291904D01*
X121070476Y-105101428D01*
X121070476Y-104863333D01*
X121118095Y-104672857D01*
X121165714Y-104577619D01*
X121213333Y-104530000D01*
X121308571Y-104482380D01*
X119737142Y-174062380D02*
X119403809Y-173586190D01*
X119165714Y-174062380D02*
X119165714Y-173062380D01*
X119546666Y-173062380D01*
X119641904Y-173110000D01*
X119689523Y-173157619D01*
X119737142Y-173252857D01*
X119737142Y-173395714D01*
X119689523Y-173490952D01*
X119641904Y-173538571D01*
X119546666Y-173586190D01*
X119165714Y-173586190D01*
X120689523Y-174062380D02*
X120118095Y-174062380D01*
X120403809Y-174062380D02*
X120403809Y-173062380D01*
X120308571Y-173205238D01*
X120213333Y-173300476D01*
X120118095Y-173348095D01*
X121546666Y-173062380D02*
X121356190Y-173062380D01*
X121260952Y-173110000D01*
X121213333Y-173157619D01*
X121118095Y-173300476D01*
X121070476Y-173490952D01*
X121070476Y-173871904D01*
X121118095Y-173967142D01*
X121165714Y-174014761D01*
X121260952Y-174062380D01*
X121451428Y-174062380D01*
X121546666Y-174014761D01*
X121594285Y-173967142D01*
X121641904Y-173871904D01*
X121641904Y-173633809D01*
X121594285Y-173538571D01*
X121546666Y-173490952D01*
X121451428Y-173443333D01*
X121260952Y-173443333D01*
X121165714Y-173490952D01*
X121118095Y-173538571D01*
X121070476Y-173633809D01*
X87479761Y-93058333D02*
X87527380Y-92915476D01*
X87527380Y-92677380D01*
X87479761Y-92582142D01*
X87432142Y-92534523D01*
X87336904Y-92486904D01*
X87241666Y-92486904D01*
X87146428Y-92534523D01*
X87098809Y-92582142D01*
X87051190Y-92677380D01*
X87003571Y-92867857D01*
X86955952Y-92963095D01*
X86908333Y-93010714D01*
X86813095Y-93058333D01*
X86717857Y-93058333D01*
X86622619Y-93010714D01*
X86575000Y-92963095D01*
X86527380Y-92867857D01*
X86527380Y-92629761D01*
X86575000Y-92486904D01*
X86527380Y-92153571D02*
X87527380Y-91915476D01*
X86813095Y-91725000D01*
X87527380Y-91534523D01*
X86527380Y-91296428D01*
X87527380Y-90391666D02*
X87527380Y-90963095D01*
X87527380Y-90677380D02*
X86527380Y-90677380D01*
X86670238Y-90772619D01*
X86765476Y-90867857D01*
X86813095Y-90963095D01*
X122580495Y-86625180D02*
X122580495Y-87434704D01*
X122628114Y-87529942D01*
X122675733Y-87577561D01*
X122770971Y-87625180D01*
X122961447Y-87625180D01*
X123056685Y-87577561D01*
X123104304Y-87529942D01*
X123151923Y-87434704D01*
X123151923Y-86625180D01*
X124056685Y-86958514D02*
X124056685Y-87625180D01*
X123818590Y-86577561D02*
X123580495Y-87291847D01*
X124199542Y-87291847D01*
X129413333Y-112117142D02*
X129365714Y-112164761D01*
X129222857Y-112212380D01*
X129127619Y-112212380D01*
X128984761Y-112164761D01*
X128889523Y-112069523D01*
X128841904Y-111974285D01*
X128794285Y-111783809D01*
X128794285Y-111640952D01*
X128841904Y-111450476D01*
X128889523Y-111355238D01*
X128984761Y-111260000D01*
X129127619Y-111212380D01*
X129222857Y-111212380D01*
X129365714Y-111260000D01*
X129413333Y-111307619D01*
X130318095Y-111212380D02*
X129841904Y-111212380D01*
X129794285Y-111688571D01*
X129841904Y-111640952D01*
X129937142Y-111593333D01*
X130175238Y-111593333D01*
X130270476Y-111640952D01*
X130318095Y-111688571D01*
X130365714Y-111783809D01*
X130365714Y-112021904D01*
X130318095Y-112117142D01*
X130270476Y-112164761D01*
X130175238Y-112212380D01*
X129937142Y-112212380D01*
X129841904Y-112164761D01*
X129794285Y-112117142D01*
X129373333Y-66397142D02*
X129325714Y-66444761D01*
X129182857Y-66492380D01*
X129087619Y-66492380D01*
X128944761Y-66444761D01*
X128849523Y-66349523D01*
X128801904Y-66254285D01*
X128754285Y-66063809D01*
X128754285Y-65920952D01*
X128801904Y-65730476D01*
X128849523Y-65635238D01*
X128944761Y-65540000D01*
X129087619Y-65492380D01*
X129182857Y-65492380D01*
X129325714Y-65540000D01*
X129373333Y-65587619D01*
X129706666Y-65492380D02*
X130325714Y-65492380D01*
X129992380Y-65873333D01*
X130135238Y-65873333D01*
X130230476Y-65920952D01*
X130278095Y-65968571D01*
X130325714Y-66063809D01*
X130325714Y-66301904D01*
X130278095Y-66397142D01*
X130230476Y-66444761D01*
X130135238Y-66492380D01*
X129849523Y-66492380D01*
X129754285Y-66444761D01*
X129706666Y-66397142D01*
X119737142Y-162122380D02*
X119403809Y-161646190D01*
X119165714Y-162122380D02*
X119165714Y-161122380D01*
X119546666Y-161122380D01*
X119641904Y-161170000D01*
X119689523Y-161217619D01*
X119737142Y-161312857D01*
X119737142Y-161455714D01*
X119689523Y-161550952D01*
X119641904Y-161598571D01*
X119546666Y-161646190D01*
X119165714Y-161646190D01*
X120689523Y-162122380D02*
X120118095Y-162122380D01*
X120403809Y-162122380D02*
X120403809Y-161122380D01*
X120308571Y-161265238D01*
X120213333Y-161360476D01*
X120118095Y-161408095D01*
X121594285Y-161122380D02*
X121118095Y-161122380D01*
X121070476Y-161598571D01*
X121118095Y-161550952D01*
X121213333Y-161503333D01*
X121451428Y-161503333D01*
X121546666Y-161550952D01*
X121594285Y-161598571D01*
X121641904Y-161693809D01*
X121641904Y-161931904D01*
X121594285Y-162027142D01*
X121546666Y-162074761D01*
X121451428Y-162122380D01*
X121213333Y-162122380D01*
X121118095Y-162074761D01*
X121070476Y-162027142D01*
X91778380Y-110887095D02*
X90778380Y-110887095D01*
X90778380Y-110649000D01*
X90826000Y-110506142D01*
X90921238Y-110410904D01*
X91016476Y-110363285D01*
X91206952Y-110315666D01*
X91349809Y-110315666D01*
X91540285Y-110363285D01*
X91635523Y-110410904D01*
X91730761Y-110506142D01*
X91778380Y-110649000D01*
X91778380Y-110887095D01*
X90873619Y-109934714D02*
X90826000Y-109887095D01*
X90778380Y-109791857D01*
X90778380Y-109553761D01*
X90826000Y-109458523D01*
X90873619Y-109410904D01*
X90968857Y-109363285D01*
X91064095Y-109363285D01*
X91206952Y-109410904D01*
X91778380Y-109982333D01*
X91778380Y-109363285D01*
X119737142Y-128342380D02*
X119403809Y-127866190D01*
X119165714Y-128342380D02*
X119165714Y-127342380D01*
X119546666Y-127342380D01*
X119641904Y-127390000D01*
X119689523Y-127437619D01*
X119737142Y-127532857D01*
X119737142Y-127675714D01*
X119689523Y-127770952D01*
X119641904Y-127818571D01*
X119546666Y-127866190D01*
X119165714Y-127866190D01*
X120689523Y-128342380D02*
X120118095Y-128342380D01*
X120403809Y-128342380D02*
X120403809Y-127342380D01*
X120308571Y-127485238D01*
X120213333Y-127580476D01*
X120118095Y-127628095D01*
X121070476Y-127437619D02*
X121118095Y-127390000D01*
X121213333Y-127342380D01*
X121451428Y-127342380D01*
X121546666Y-127390000D01*
X121594285Y-127437619D01*
X121641904Y-127532857D01*
X121641904Y-127628095D01*
X121594285Y-127770952D01*
X121022857Y-128342380D01*
X121641904Y-128342380D01*
X89238380Y-99645666D02*
X88762190Y-99979000D01*
X89238380Y-100217095D02*
X88238380Y-100217095D01*
X88238380Y-99836142D01*
X88286000Y-99740904D01*
X88333619Y-99693285D01*
X88428857Y-99645666D01*
X88571714Y-99645666D01*
X88666952Y-99693285D01*
X88714571Y-99740904D01*
X88762190Y-99836142D01*
X88762190Y-100217095D01*
X88571714Y-98788523D02*
X89238380Y-98788523D01*
X88190761Y-99026619D02*
X88905047Y-99264714D01*
X88905047Y-98645666D01*
X120213333Y-93542380D02*
X119880000Y-93066190D01*
X119641904Y-93542380D02*
X119641904Y-92542380D01*
X120022857Y-92542380D01*
X120118095Y-92590000D01*
X120165714Y-92637619D01*
X120213333Y-92732857D01*
X120213333Y-92875714D01*
X120165714Y-92970952D01*
X120118095Y-93018571D01*
X120022857Y-93066190D01*
X119641904Y-93066190D01*
X120689523Y-93542380D02*
X120880000Y-93542380D01*
X120975238Y-93494761D01*
X121022857Y-93447142D01*
X121118095Y-93304285D01*
X121165714Y-93113809D01*
X121165714Y-92732857D01*
X121118095Y-92637619D01*
X121070476Y-92590000D01*
X120975238Y-92542380D01*
X120784761Y-92542380D01*
X120689523Y-92590000D01*
X120641904Y-92637619D01*
X120594285Y-92732857D01*
X120594285Y-92970952D01*
X120641904Y-93066190D01*
X120689523Y-93113809D01*
X120784761Y-93161428D01*
X120975238Y-93161428D01*
X121070476Y-93113809D01*
X121118095Y-93066190D01*
X121165714Y-92970952D01*
X89016142Y-83379166D02*
X89063761Y-83426785D01*
X89111380Y-83569642D01*
X89111380Y-83664880D01*
X89063761Y-83807738D01*
X88968523Y-83902976D01*
X88873285Y-83950595D01*
X88682809Y-83998214D01*
X88539952Y-83998214D01*
X88349476Y-83950595D01*
X88254238Y-83902976D01*
X88159000Y-83807738D01*
X88111380Y-83664880D01*
X88111380Y-83569642D01*
X88159000Y-83426785D01*
X88206619Y-83379166D01*
X88206619Y-82998214D02*
X88159000Y-82950595D01*
X88111380Y-82855357D01*
X88111380Y-82617261D01*
X88159000Y-82522023D01*
X88206619Y-82474404D01*
X88301857Y-82426785D01*
X88397095Y-82426785D01*
X88539952Y-82474404D01*
X89111380Y-83045833D01*
X89111380Y-82426785D01*
X120213333Y-82622380D02*
X119880000Y-82146190D01*
X119641904Y-82622380D02*
X119641904Y-81622380D01*
X120022857Y-81622380D01*
X120118095Y-81670000D01*
X120165714Y-81717619D01*
X120213333Y-81812857D01*
X120213333Y-81955714D01*
X120165714Y-82050952D01*
X120118095Y-82098571D01*
X120022857Y-82146190D01*
X119641904Y-82146190D01*
X120784761Y-82050952D02*
X120689523Y-82003333D01*
X120641904Y-81955714D01*
X120594285Y-81860476D01*
X120594285Y-81812857D01*
X120641904Y-81717619D01*
X120689523Y-81670000D01*
X120784761Y-81622380D01*
X120975238Y-81622380D01*
X121070476Y-81670000D01*
X121118095Y-81717619D01*
X121165714Y-81812857D01*
X121165714Y-81860476D01*
X121118095Y-81955714D01*
X121070476Y-82003333D01*
X120975238Y-82050952D01*
X120784761Y-82050952D01*
X120689523Y-82098571D01*
X120641904Y-82146190D01*
X120594285Y-82241428D01*
X120594285Y-82431904D01*
X120641904Y-82527142D01*
X120689523Y-82574761D01*
X120784761Y-82622380D01*
X120975238Y-82622380D01*
X121070476Y-82574761D01*
X121118095Y-82527142D01*
X121165714Y-82431904D01*
X121165714Y-82241428D01*
X121118095Y-82146190D01*
X121070476Y-82098571D01*
X120975238Y-82050952D01*
X129373333Y-134977142D02*
X129325714Y-135024761D01*
X129182857Y-135072380D01*
X129087619Y-135072380D01*
X128944761Y-135024761D01*
X128849523Y-134929523D01*
X128801904Y-134834285D01*
X128754285Y-134643809D01*
X128754285Y-134500952D01*
X128801904Y-134310476D01*
X128849523Y-134215238D01*
X128944761Y-134120000D01*
X129087619Y-134072380D01*
X129182857Y-134072380D01*
X129325714Y-134120000D01*
X129373333Y-134167619D01*
X130230476Y-134072380D02*
X130040000Y-134072380D01*
X129944761Y-134120000D01*
X129897142Y-134167619D01*
X129801904Y-134310476D01*
X129754285Y-134500952D01*
X129754285Y-134881904D01*
X129801904Y-134977142D01*
X129849523Y-135024761D01*
X129944761Y-135072380D01*
X130135238Y-135072380D01*
X130230476Y-135024761D01*
X130278095Y-134977142D01*
X130325714Y-134881904D01*
X130325714Y-134643809D01*
X130278095Y-134548571D01*
X130230476Y-134500952D01*
X130135238Y-134453333D01*
X129944761Y-134453333D01*
X129849523Y-134500952D01*
X129801904Y-134548571D01*
X129754285Y-134643809D01*
X120213333Y-59762380D02*
X119880000Y-59286190D01*
X119641904Y-59762380D02*
X119641904Y-58762380D01*
X120022857Y-58762380D01*
X120118095Y-58810000D01*
X120165714Y-58857619D01*
X120213333Y-58952857D01*
X120213333Y-59095714D01*
X120165714Y-59190952D01*
X120118095Y-59238571D01*
X120022857Y-59286190D01*
X119641904Y-59286190D01*
X120594285Y-58857619D02*
X120641904Y-58810000D01*
X120737142Y-58762380D01*
X120975238Y-58762380D01*
X121070476Y-58810000D01*
X121118095Y-58857619D01*
X121165714Y-58952857D01*
X121165714Y-59048095D01*
X121118095Y-59190952D01*
X120546666Y-59762380D01*
X121165714Y-59762380D01*
X119737142Y-139262380D02*
X119403809Y-138786190D01*
X119165714Y-139262380D02*
X119165714Y-138262380D01*
X119546666Y-138262380D01*
X119641904Y-138310000D01*
X119689523Y-138357619D01*
X119737142Y-138452857D01*
X119737142Y-138595714D01*
X119689523Y-138690952D01*
X119641904Y-138738571D01*
X119546666Y-138786190D01*
X119165714Y-138786190D01*
X120689523Y-139262380D02*
X120118095Y-139262380D01*
X120403809Y-139262380D02*
X120403809Y-138262380D01*
X120308571Y-138405238D01*
X120213333Y-138500476D01*
X120118095Y-138548095D01*
X121022857Y-138262380D02*
X121641904Y-138262380D01*
X121308571Y-138643333D01*
X121451428Y-138643333D01*
X121546666Y-138690952D01*
X121594285Y-138738571D01*
X121641904Y-138833809D01*
X121641904Y-139071904D01*
X121594285Y-139167142D01*
X121546666Y-139214761D01*
X121451428Y-139262380D01*
X121165714Y-139262380D01*
X121070476Y-139214761D01*
X121022857Y-139167142D01*
X120213333Y-70682380D02*
X119880000Y-70206190D01*
X119641904Y-70682380D02*
X119641904Y-69682380D01*
X120022857Y-69682380D01*
X120118095Y-69730000D01*
X120165714Y-69777619D01*
X120213333Y-69872857D01*
X120213333Y-70015714D01*
X120165714Y-70110952D01*
X120118095Y-70158571D01*
X120022857Y-70206190D01*
X119641904Y-70206190D01*
X120546666Y-69682380D02*
X121213333Y-69682380D01*
X120784761Y-70682380D01*
X122580495Y-74152380D02*
X122580495Y-74961904D01*
X122628114Y-75057142D01*
X122675733Y-75104761D01*
X122770971Y-75152380D01*
X122961447Y-75152380D01*
X123056685Y-75104761D01*
X123104304Y-75057142D01*
X123151923Y-74961904D01*
X123151923Y-74152380D01*
X123532876Y-74152380D02*
X124151923Y-74152380D01*
X123818590Y-74533333D01*
X123961447Y-74533333D01*
X124056685Y-74580952D01*
X124104304Y-74628571D01*
X124151923Y-74723809D01*
X124151923Y-74961904D01*
X124104304Y-75057142D01*
X124056685Y-75104761D01*
X123961447Y-75152380D01*
X123675733Y-75152380D01*
X123580495Y-75104761D01*
X123532876Y-75057142D01*
X129119333Y-89511142D02*
X129071714Y-89558761D01*
X128928857Y-89606380D01*
X128833619Y-89606380D01*
X128690761Y-89558761D01*
X128595523Y-89463523D01*
X128547904Y-89368285D01*
X128500285Y-89177809D01*
X128500285Y-89034952D01*
X128547904Y-88844476D01*
X128595523Y-88749238D01*
X128690761Y-88654000D01*
X128833619Y-88606380D01*
X128928857Y-88606380D01*
X129071714Y-88654000D01*
X129119333Y-88701619D01*
X129976476Y-88939714D02*
X129976476Y-89606380D01*
X129738380Y-88558761D02*
X129500285Y-89273047D01*
X130119333Y-89273047D01*
X97163095Y-22992580D02*
X97163095Y-23802104D01*
X97210714Y-23897342D01*
X97258333Y-23944961D01*
X97353571Y-23992580D01*
X97544047Y-23992580D01*
X97639285Y-23944961D01*
X97686904Y-23897342D01*
X97734523Y-23802104D01*
X97734523Y-22992580D01*
X98163095Y-23087819D02*
X98210714Y-23040200D01*
X98305952Y-22992580D01*
X98544047Y-22992580D01*
X98639285Y-23040200D01*
X98686904Y-23087819D01*
X98734523Y-23183057D01*
X98734523Y-23278295D01*
X98686904Y-23421152D01*
X98115476Y-23992580D01*
X98734523Y-23992580D01*
X91778380Y-99645666D02*
X91302190Y-99979000D01*
X91778380Y-100217095D02*
X90778380Y-100217095D01*
X90778380Y-99836142D01*
X90826000Y-99740904D01*
X90873619Y-99693285D01*
X90968857Y-99645666D01*
X91111714Y-99645666D01*
X91206952Y-99693285D01*
X91254571Y-99740904D01*
X91302190Y-99836142D01*
X91302190Y-100217095D01*
X90778380Y-98740904D02*
X90778380Y-99217095D01*
X91254571Y-99264714D01*
X91206952Y-99217095D01*
X91159333Y-99121857D01*
X91159333Y-98883761D01*
X91206952Y-98788523D01*
X91254571Y-98740904D01*
X91349809Y-98693285D01*
X91587904Y-98693285D01*
X91683142Y-98740904D01*
X91730761Y-98788523D01*
X91778380Y-98883761D01*
X91778380Y-99121857D01*
X91730761Y-99217095D01*
X91683142Y-99264714D01*
X129373333Y-42521142D02*
X129325714Y-42568761D01*
X129182857Y-42616380D01*
X129087619Y-42616380D01*
X128944761Y-42568761D01*
X128849523Y-42473523D01*
X128801904Y-42378285D01*
X128754285Y-42187809D01*
X128754285Y-42044952D01*
X128801904Y-41854476D01*
X128849523Y-41759238D01*
X128944761Y-41664000D01*
X129087619Y-41616380D01*
X129182857Y-41616380D01*
X129325714Y-41664000D01*
X129373333Y-41711619D01*
X130325714Y-42616380D02*
X129754285Y-42616380D01*
X130040000Y-42616380D02*
X130040000Y-41616380D01*
X129944761Y-41759238D01*
X129849523Y-41854476D01*
X129754285Y-41902095D01*
X94318380Y-110887095D02*
X93318380Y-110887095D01*
X93318380Y-110649000D01*
X93366000Y-110506142D01*
X93461238Y-110410904D01*
X93556476Y-110363285D01*
X93746952Y-110315666D01*
X93889809Y-110315666D01*
X94080285Y-110363285D01*
X94175523Y-110410904D01*
X94270761Y-110506142D01*
X94318380Y-110649000D01*
X94318380Y-110887095D01*
X93318380Y-109982333D02*
X93318380Y-109363285D01*
X93699333Y-109696619D01*
X93699333Y-109553761D01*
X93746952Y-109458523D01*
X93794571Y-109410904D01*
X93889809Y-109363285D01*
X94127904Y-109363285D01*
X94223142Y-109410904D01*
X94270761Y-109458523D01*
X94318380Y-109553761D01*
X94318380Y-109839476D01*
X94270761Y-109934714D01*
X94223142Y-109982333D01*
X120213333Y-47822380D02*
X119880000Y-47346190D01*
X119641904Y-47822380D02*
X119641904Y-46822380D01*
X120022857Y-46822380D01*
X120118095Y-46870000D01*
X120165714Y-46917619D01*
X120213333Y-47012857D01*
X120213333Y-47155714D01*
X120165714Y-47250952D01*
X120118095Y-47298571D01*
X120022857Y-47346190D01*
X119641904Y-47346190D01*
X121165714Y-47822380D02*
X120594285Y-47822380D01*
X120880000Y-47822380D02*
X120880000Y-46822380D01*
X120784761Y-46965238D01*
X120689523Y-47060476D01*
X120594285Y-47108095D01*
X140921666Y-70482380D02*
X140921666Y-71196666D01*
X140874047Y-71339523D01*
X140778809Y-71434761D01*
X140635952Y-71482380D01*
X140540714Y-71482380D01*
X141302619Y-70482380D02*
X141921666Y-70482380D01*
X141588333Y-70863333D01*
X141731190Y-70863333D01*
X141826428Y-70910952D01*
X141874047Y-70958571D01*
X141921666Y-71053809D01*
X141921666Y-71291904D01*
X141874047Y-71387142D01*
X141826428Y-71434761D01*
X141731190Y-71482380D01*
X141445476Y-71482380D01*
X141350238Y-71434761D01*
X141302619Y-71387142D01*
X140846666Y-116132380D02*
X140846666Y-116846666D01*
X140799047Y-116989523D01*
X140703809Y-117084761D01*
X140560952Y-117132380D01*
X140465714Y-117132380D01*
X141799047Y-116132380D02*
X141322857Y-116132380D01*
X141275238Y-116608571D01*
X141322857Y-116560952D01*
X141418095Y-116513333D01*
X141656190Y-116513333D01*
X141751428Y-116560952D01*
X141799047Y-116608571D01*
X141846666Y-116703809D01*
X141846666Y-116941904D01*
X141799047Y-117037142D01*
X141751428Y-117084761D01*
X141656190Y-117132380D01*
X141418095Y-117132380D01*
X141322857Y-117084761D01*
X141275238Y-117037142D01*
X140971666Y-47532380D02*
X140971666Y-48246666D01*
X140924047Y-48389523D01*
X140828809Y-48484761D01*
X140685952Y-48532380D01*
X140590714Y-48532380D01*
X141971666Y-48532380D02*
X141400238Y-48532380D01*
X141685952Y-48532380D02*
X141685952Y-47532380D01*
X141590714Y-47675238D01*
X141495476Y-47770476D01*
X141400238Y-47818095D01*
X140971666Y-93182380D02*
X140971666Y-93896666D01*
X140924047Y-94039523D01*
X140828809Y-94134761D01*
X140685952Y-94182380D01*
X140590714Y-94182380D01*
X141876428Y-93515714D02*
X141876428Y-94182380D01*
X141638333Y-93134761D02*
X141400238Y-93849047D01*
X142019285Y-93849047D01*
X141041666Y-161807380D02*
X141041666Y-162521666D01*
X140994047Y-162664523D01*
X140898809Y-162759761D01*
X140755952Y-162807380D01*
X140660714Y-162807380D01*
X141422619Y-161807380D02*
X142089285Y-161807380D01*
X141660714Y-162807380D01*
D12*
X120607064Y-113565000D02*
X120152936Y-113565000D01*
X120607064Y-115035000D02*
X120152936Y-115035000D01*
X133250000Y-160058000D02*
X133250000Y-154902000D01*
X131289000Y-156440000D02*
X131289000Y-155926000D01*
X132810000Y-156440000D02*
X132810000Y-154960000D01*
X132730000Y-156440000D02*
X132730000Y-154979000D01*
X131889000Y-156440000D02*
X131889000Y-155358000D01*
X132730000Y-159981000D02*
X132730000Y-158520000D01*
X133050000Y-160041000D02*
X133050000Y-158520000D01*
X132930000Y-160023000D02*
X132930000Y-158520000D01*
X131129000Y-158799000D02*
X131129000Y-158520000D01*
X132770000Y-156440000D02*
X132770000Y-154969000D01*
X132970000Y-156440000D02*
X132970000Y-154930000D01*
X132409000Y-159878000D02*
X132409000Y-158520000D01*
X133090000Y-160045000D02*
X133090000Y-158520000D01*
X131169000Y-156440000D02*
X131169000Y-156097000D01*
X131609000Y-156440000D02*
X131609000Y-155579000D01*
X131889000Y-159602000D02*
X131889000Y-158520000D01*
X132209000Y-156440000D02*
X132209000Y-155170000D01*
X131769000Y-156440000D02*
X131769000Y-155445000D01*
X131729000Y-159484000D02*
X131729000Y-158520000D01*
X133370000Y-160060000D02*
X133370000Y-154900000D01*
X133130000Y-160049000D02*
X133130000Y-158520000D01*
X131489000Y-159265000D02*
X131489000Y-158520000D01*
X132649000Y-159960000D02*
X132649000Y-158520000D01*
X132690000Y-159971000D02*
X132690000Y-158520000D01*
X131729000Y-156440000D02*
X131729000Y-155476000D01*
X131849000Y-156440000D02*
X131849000Y-155385000D01*
X132169000Y-159770000D02*
X132169000Y-158520000D01*
X132850000Y-156440000D02*
X132850000Y-154952000D01*
X133170000Y-160053000D02*
X133170000Y-154907000D01*
X130929000Y-158395000D02*
X130929000Y-156565000D01*
X131409000Y-156440000D02*
X131409000Y-155781000D01*
X133010000Y-160036000D02*
X133010000Y-158520000D01*
X131689000Y-156440000D02*
X131689000Y-155509000D01*
X131329000Y-159085000D02*
X131329000Y-158520000D01*
X131569000Y-159344000D02*
X131569000Y-158520000D01*
X132569000Y-156440000D02*
X132569000Y-155025000D01*
X131569000Y-156440000D02*
X131569000Y-155616000D01*
X131329000Y-156440000D02*
X131329000Y-155875000D01*
X130769000Y-157764000D02*
X130769000Y-157196000D01*
X131649000Y-159417000D02*
X131649000Y-158520000D01*
X132890000Y-160016000D02*
X132890000Y-158520000D01*
X133130000Y-156440000D02*
X133130000Y-154911000D01*
X131969000Y-159655000D02*
X131969000Y-158520000D01*
X132009000Y-159680000D02*
X132009000Y-158520000D01*
X131929000Y-156440000D02*
X131929000Y-155331000D01*
X132649000Y-156440000D02*
X132649000Y-155000000D01*
X133090000Y-156440000D02*
X133090000Y-154915000D01*
X131209000Y-158923000D02*
X131209000Y-158520000D01*
X132049000Y-159704000D02*
X132049000Y-158520000D01*
X132249000Y-156440000D02*
X132249000Y-155151000D01*
X132129000Y-159748000D02*
X132129000Y-158520000D01*
X130889000Y-158285000D02*
X130889000Y-156675000D01*
X131369000Y-156440000D02*
X131369000Y-155827000D01*
X131529000Y-156440000D02*
X131529000Y-155654000D01*
X132329000Y-156440000D02*
X132329000Y-155115000D01*
X131849000Y-159575000D02*
X131849000Y-158520000D01*
X132690000Y-156440000D02*
X132690000Y-154989000D01*
X130849000Y-158157000D02*
X130849000Y-156803000D01*
X132289000Y-156440000D02*
X132289000Y-155132000D01*
X132609000Y-156440000D02*
X132609000Y-155012000D01*
X132209000Y-159790000D02*
X132209000Y-158520000D01*
X132489000Y-159908000D02*
X132489000Y-158520000D01*
X133290000Y-160059000D02*
X133290000Y-154901000D01*
X131289000Y-159034000D02*
X131289000Y-158520000D01*
X131449000Y-156440000D02*
X131449000Y-155737000D01*
X131649000Y-156440000D02*
X131649000Y-155543000D01*
X132049000Y-156440000D02*
X132049000Y-155256000D01*
X132169000Y-156440000D02*
X132169000Y-155190000D01*
X131929000Y-159629000D02*
X131929000Y-158520000D01*
X132369000Y-156440000D02*
X132369000Y-155098000D01*
X133050000Y-156440000D02*
X133050000Y-154919000D01*
X133210000Y-160056000D02*
X133210000Y-154904000D01*
X132890000Y-156440000D02*
X132890000Y-154944000D01*
X133330000Y-160060000D02*
X133330000Y-154900000D01*
X132129000Y-156440000D02*
X132129000Y-155212000D01*
X132249000Y-159809000D02*
X132249000Y-158520000D01*
X132970000Y-160030000D02*
X132970000Y-158520000D01*
X131489000Y-156440000D02*
X131489000Y-155695000D01*
X132770000Y-159991000D02*
X132770000Y-158520000D01*
X131129000Y-156440000D02*
X131129000Y-156161000D01*
X131529000Y-159306000D02*
X131529000Y-158520000D01*
X132529000Y-159922000D02*
X132529000Y-158520000D01*
X132329000Y-159845000D02*
X132329000Y-158520000D01*
X132449000Y-159894000D02*
X132449000Y-158520000D01*
X132489000Y-156440000D02*
X132489000Y-155052000D01*
X132569000Y-159935000D02*
X132569000Y-158520000D01*
X131809000Y-156440000D02*
X131809000Y-155415000D01*
X131449000Y-159223000D02*
X131449000Y-158520000D01*
X132089000Y-159727000D02*
X132089000Y-158520000D01*
X132850000Y-160008000D02*
X132850000Y-158520000D01*
X132609000Y-159948000D02*
X132609000Y-158520000D01*
X131769000Y-159515000D02*
X131769000Y-158520000D01*
X132009000Y-156440000D02*
X132009000Y-155280000D01*
X130969000Y-158491000D02*
X130969000Y-156469000D01*
X131409000Y-159179000D02*
X131409000Y-158520000D01*
X131249000Y-158980000D02*
X131249000Y-158520000D01*
X131609000Y-159381000D02*
X131609000Y-158520000D01*
X131089000Y-158731000D02*
X131089000Y-158520000D01*
X132289000Y-159828000D02*
X132289000Y-158520000D01*
X133010000Y-156440000D02*
X133010000Y-154924000D01*
X131969000Y-156440000D02*
X131969000Y-155305000D01*
X132930000Y-156440000D02*
X132930000Y-154937000D01*
X132089000Y-156440000D02*
X132089000Y-155233000D01*
X131809000Y-159545000D02*
X131809000Y-158520000D01*
X131369000Y-159133000D02*
X131369000Y-158520000D01*
X131089000Y-156440000D02*
X131089000Y-156229000D01*
X132449000Y-156440000D02*
X132449000Y-155066000D01*
X132369000Y-159862000D02*
X132369000Y-158520000D01*
X132529000Y-156440000D02*
X132529000Y-155038000D01*
X131049000Y-158658000D02*
X131049000Y-156302000D01*
X132409000Y-156440000D02*
X132409000Y-155082000D01*
X131249000Y-156440000D02*
X131249000Y-155980000D01*
X131689000Y-159451000D02*
X131689000Y-158520000D01*
X131009000Y-158578000D02*
X131009000Y-156382000D01*
X130809000Y-157998000D02*
X130809000Y-156962000D01*
X136174775Y-158955000D02*
X135674775Y-158955000D01*
X131169000Y-158863000D02*
X131169000Y-158520000D01*
X131209000Y-156440000D02*
X131209000Y-156037000D01*
X135924775Y-159205000D02*
X135924775Y-158705000D01*
X132810000Y-160000000D02*
X132810000Y-158520000D01*
X135990000Y-157480000D02*
G75*
G03*
X135990000Y-157480000I-2620000J0D01*
G01*
X90295500Y-86414724D02*
X90295500Y-85905276D01*
X91340500Y-86414724D02*
X91340500Y-85905276D01*
X120152936Y-153135000D02*
X120607064Y-153135000D01*
X120152936Y-151665000D02*
X120607064Y-151665000D01*
X129961500Y-29194000D02*
X129961500Y-20394000D01*
X129961500Y-20394000D02*
X139161500Y-20394000D01*
X138311500Y-35294000D02*
X139361500Y-35294000D01*
X132661500Y-35094000D02*
X129961500Y-35094000D01*
X139161500Y-35094000D02*
X136561500Y-35094000D01*
X139361500Y-34244000D02*
X139361500Y-35294000D01*
X139161500Y-20394000D02*
X139161500Y-35094000D01*
X129961500Y-35094000D02*
X129961500Y-33194000D01*
X89521000Y-108634000D02*
X89521000Y-106174000D01*
X88051000Y-108634000D02*
X89521000Y-108634000D01*
X88051000Y-106174000D02*
X88051000Y-108634000D01*
X94601000Y-102426936D02*
X94601000Y-102881064D01*
X93131000Y-102426936D02*
X93131000Y-102881064D01*
X120152936Y-107415000D02*
X120607064Y-107415000D01*
X120152936Y-105945000D02*
X120607064Y-105945000D01*
X120152936Y-174525000D02*
X120607064Y-174525000D01*
X120152936Y-175995000D02*
X120607064Y-175995000D01*
X91425000Y-94075000D02*
X91425000Y-89675000D01*
X89725000Y-89675000D02*
X89625000Y-89675000D01*
X89725000Y-94075000D02*
X89625000Y-94075000D01*
X87925000Y-89675000D02*
X87925000Y-94075000D01*
X133010000Y-114316000D02*
X133010000Y-112800000D01*
X131249000Y-110720000D02*
X131249000Y-110260000D01*
X132690000Y-110720000D02*
X132690000Y-109269000D01*
X132209000Y-114070000D02*
X132209000Y-112800000D01*
X132970000Y-114310000D02*
X132970000Y-112800000D01*
X131929000Y-113909000D02*
X131929000Y-112800000D01*
X132249000Y-110720000D02*
X132249000Y-109431000D01*
X132890000Y-114296000D02*
X132890000Y-112800000D01*
X133290000Y-114339000D02*
X133290000Y-109181000D01*
X132289000Y-114108000D02*
X132289000Y-112800000D01*
X131449000Y-113503000D02*
X131449000Y-112800000D01*
X131689000Y-113731000D02*
X131689000Y-112800000D01*
X132089000Y-114007000D02*
X132089000Y-112800000D01*
X132770000Y-114271000D02*
X132770000Y-112800000D01*
X132049000Y-110720000D02*
X132049000Y-109536000D01*
X132569000Y-110720000D02*
X132569000Y-109305000D01*
X131049000Y-112938000D02*
X131049000Y-110582000D01*
X130809000Y-112278000D02*
X130809000Y-111242000D01*
X132449000Y-110720000D02*
X132449000Y-109346000D01*
X133370000Y-114340000D02*
X133370000Y-109180000D01*
X132009000Y-110720000D02*
X132009000Y-109560000D01*
X132609000Y-110720000D02*
X132609000Y-109292000D01*
X131529000Y-113586000D02*
X131529000Y-112800000D01*
X132449000Y-114174000D02*
X132449000Y-112800000D01*
X131649000Y-113697000D02*
X131649000Y-112800000D01*
X133050000Y-110720000D02*
X133050000Y-109199000D01*
X132730000Y-114261000D02*
X132730000Y-112800000D01*
X131769000Y-113795000D02*
X131769000Y-112800000D01*
X132810000Y-110720000D02*
X132810000Y-109240000D01*
X130969000Y-112771000D02*
X130969000Y-110749000D01*
X131689000Y-110720000D02*
X131689000Y-109789000D01*
X132529000Y-114202000D02*
X132529000Y-112800000D01*
X135924775Y-113485000D02*
X135924775Y-112985000D01*
X131409000Y-113459000D02*
X131409000Y-112800000D01*
X132129000Y-110720000D02*
X132129000Y-109492000D01*
X133010000Y-110720000D02*
X133010000Y-109204000D01*
X133090000Y-110720000D02*
X133090000Y-109195000D01*
X132930000Y-110720000D02*
X132930000Y-109217000D01*
X132409000Y-114158000D02*
X132409000Y-112800000D01*
X131849000Y-110720000D02*
X131849000Y-109665000D01*
X131569000Y-113624000D02*
X131569000Y-112800000D01*
X132169000Y-110720000D02*
X132169000Y-109470000D01*
X132409000Y-110720000D02*
X132409000Y-109362000D01*
X132970000Y-110720000D02*
X132970000Y-109210000D01*
X132249000Y-114089000D02*
X132249000Y-112800000D01*
X131729000Y-113764000D02*
X131729000Y-112800000D01*
X131369000Y-110720000D02*
X131369000Y-110107000D01*
X131609000Y-113661000D02*
X131609000Y-112800000D01*
X131209000Y-110720000D02*
X131209000Y-110317000D01*
X132049000Y-113984000D02*
X132049000Y-112800000D01*
X131569000Y-110720000D02*
X131569000Y-109896000D01*
X132209000Y-110720000D02*
X132209000Y-109450000D01*
X132569000Y-114215000D02*
X132569000Y-112800000D01*
X131809000Y-110720000D02*
X131809000Y-109695000D01*
X131209000Y-113203000D02*
X131209000Y-112800000D01*
X131329000Y-113365000D02*
X131329000Y-112800000D01*
X132850000Y-114288000D02*
X132850000Y-112800000D01*
X131289000Y-110720000D02*
X131289000Y-110206000D01*
X133250000Y-114338000D02*
X133250000Y-109182000D01*
X132169000Y-114050000D02*
X132169000Y-112800000D01*
X131609000Y-110720000D02*
X131609000Y-109859000D01*
X131449000Y-110720000D02*
X131449000Y-110017000D01*
X131249000Y-113260000D02*
X131249000Y-112800000D01*
X131729000Y-110720000D02*
X131729000Y-109756000D01*
X131529000Y-110720000D02*
X131529000Y-109934000D01*
X130929000Y-112675000D02*
X130929000Y-110845000D01*
X132009000Y-113960000D02*
X132009000Y-112800000D01*
X132609000Y-114228000D02*
X132609000Y-112800000D01*
X133170000Y-114333000D02*
X133170000Y-109187000D01*
X131969000Y-113935000D02*
X131969000Y-112800000D01*
X131889000Y-110720000D02*
X131889000Y-109638000D01*
X131809000Y-113825000D02*
X131809000Y-112800000D01*
X133330000Y-114340000D02*
X133330000Y-109180000D01*
X132369000Y-114142000D02*
X132369000Y-112800000D01*
X131169000Y-113143000D02*
X131169000Y-112800000D01*
X136174775Y-113235000D02*
X135674775Y-113235000D01*
X130889000Y-112565000D02*
X130889000Y-110955000D01*
X131889000Y-113882000D02*
X131889000Y-112800000D01*
X131409000Y-110720000D02*
X131409000Y-110061000D01*
X133130000Y-110720000D02*
X133130000Y-109191000D01*
X131489000Y-113545000D02*
X131489000Y-112800000D01*
X131129000Y-110720000D02*
X131129000Y-110441000D01*
X133210000Y-114336000D02*
X133210000Y-109184000D01*
X132850000Y-110720000D02*
X132850000Y-109232000D01*
X130849000Y-112437000D02*
X130849000Y-111083000D01*
X131849000Y-113855000D02*
X131849000Y-112800000D01*
X131169000Y-110720000D02*
X131169000Y-110377000D01*
X132529000Y-110720000D02*
X132529000Y-109318000D01*
X132770000Y-110720000D02*
X132770000Y-109249000D01*
X131649000Y-110720000D02*
X131649000Y-109823000D01*
X131489000Y-110720000D02*
X131489000Y-109975000D01*
X132649000Y-110720000D02*
X132649000Y-109280000D01*
X132810000Y-114280000D02*
X132810000Y-112800000D01*
X132289000Y-110720000D02*
X132289000Y-109412000D01*
X131089000Y-113011000D02*
X131089000Y-112800000D01*
X132089000Y-110720000D02*
X132089000Y-109513000D01*
X133050000Y-114321000D02*
X133050000Y-112800000D01*
X132129000Y-114028000D02*
X132129000Y-112800000D01*
X132489000Y-114188000D02*
X132489000Y-112800000D01*
X132690000Y-114251000D02*
X132690000Y-112800000D01*
X132329000Y-110720000D02*
X132329000Y-109395000D01*
X131129000Y-113079000D02*
X131129000Y-112800000D01*
X131009000Y-112858000D02*
X131009000Y-110662000D01*
X131929000Y-110720000D02*
X131929000Y-109611000D01*
X131089000Y-110720000D02*
X131089000Y-110509000D01*
X132329000Y-114125000D02*
X132329000Y-112800000D01*
X133090000Y-114325000D02*
X133090000Y-112800000D01*
X132890000Y-110720000D02*
X132890000Y-109224000D01*
X132369000Y-110720000D02*
X132369000Y-109378000D01*
X131969000Y-110720000D02*
X131969000Y-109585000D01*
X132489000Y-110720000D02*
X132489000Y-109332000D01*
X131369000Y-113413000D02*
X131369000Y-112800000D01*
X131289000Y-113314000D02*
X131289000Y-112800000D01*
X131769000Y-110720000D02*
X131769000Y-109725000D01*
X132730000Y-110720000D02*
X132730000Y-109259000D01*
X130769000Y-112044000D02*
X130769000Y-111476000D01*
X131329000Y-110720000D02*
X131329000Y-110155000D01*
X132649000Y-114240000D02*
X132649000Y-112800000D01*
X132930000Y-114303000D02*
X132930000Y-112800000D01*
X133130000Y-114329000D02*
X133130000Y-112800000D01*
X135990000Y-111760000D02*
G75*
G03*
X135990000Y-111760000I-2620000J0D01*
G01*
X131049000Y-67218000D02*
X131049000Y-64862000D01*
X132409000Y-65000000D02*
X132409000Y-63642000D01*
X131089000Y-65000000D02*
X131089000Y-64789000D01*
X132569000Y-68495000D02*
X132569000Y-67080000D01*
X130809000Y-66558000D02*
X130809000Y-65522000D01*
X133170000Y-68613000D02*
X133170000Y-63467000D01*
X133330000Y-68620000D02*
X133330000Y-63460000D01*
X133130000Y-65000000D02*
X133130000Y-63471000D01*
X133210000Y-68616000D02*
X133210000Y-63464000D01*
X132329000Y-68405000D02*
X132329000Y-67080000D01*
X132850000Y-65000000D02*
X132850000Y-63512000D01*
X132730000Y-68541000D02*
X132730000Y-67080000D01*
X132810000Y-68560000D02*
X132810000Y-67080000D01*
X131969000Y-65000000D02*
X131969000Y-63865000D01*
X131249000Y-67540000D02*
X131249000Y-67080000D01*
X132649000Y-65000000D02*
X132649000Y-63560000D01*
X131089000Y-67291000D02*
X131089000Y-67080000D01*
X132970000Y-65000000D02*
X132970000Y-63490000D01*
X131249000Y-65000000D02*
X131249000Y-64540000D01*
X131329000Y-67645000D02*
X131329000Y-67080000D01*
X132289000Y-65000000D02*
X132289000Y-63692000D01*
X132890000Y-65000000D02*
X132890000Y-63504000D01*
X131129000Y-67359000D02*
X131129000Y-67080000D01*
X131369000Y-67693000D02*
X131369000Y-67080000D01*
X131489000Y-65000000D02*
X131489000Y-64255000D01*
X132489000Y-65000000D02*
X132489000Y-63612000D01*
X130889000Y-66845000D02*
X130889000Y-65235000D01*
X132409000Y-68438000D02*
X132409000Y-67080000D01*
X133010000Y-68596000D02*
X133010000Y-67080000D01*
X132049000Y-68264000D02*
X132049000Y-67080000D01*
X133370000Y-68620000D02*
X133370000Y-63460000D01*
X136174775Y-67515000D02*
X135674775Y-67515000D01*
X131529000Y-67866000D02*
X131529000Y-67080000D01*
X132169000Y-65000000D02*
X132169000Y-63750000D01*
X132690000Y-65000000D02*
X132690000Y-63549000D01*
X133050000Y-65000000D02*
X133050000Y-63479000D01*
X131609000Y-65000000D02*
X131609000Y-64139000D01*
X132810000Y-65000000D02*
X132810000Y-63520000D01*
X132690000Y-68531000D02*
X132690000Y-67080000D01*
X132249000Y-68369000D02*
X132249000Y-67080000D01*
X131809000Y-65000000D02*
X131809000Y-63975000D01*
X132930000Y-68583000D02*
X132930000Y-67080000D01*
X131489000Y-67825000D02*
X131489000Y-67080000D01*
X132730000Y-65000000D02*
X132730000Y-63539000D01*
X131409000Y-67739000D02*
X131409000Y-67080000D01*
X132009000Y-65000000D02*
X132009000Y-63840000D01*
X131449000Y-67783000D02*
X131449000Y-67080000D01*
X132129000Y-65000000D02*
X132129000Y-63772000D01*
X133290000Y-68619000D02*
X133290000Y-63461000D01*
X131689000Y-65000000D02*
X131689000Y-64069000D01*
X133250000Y-68618000D02*
X133250000Y-63462000D01*
X131129000Y-65000000D02*
X131129000Y-64721000D01*
X132609000Y-68508000D02*
X132609000Y-67080000D01*
X130929000Y-66955000D02*
X130929000Y-65125000D01*
X131449000Y-65000000D02*
X131449000Y-64297000D01*
X132770000Y-68551000D02*
X132770000Y-67080000D01*
X132890000Y-68576000D02*
X132890000Y-67080000D01*
X132770000Y-65000000D02*
X132770000Y-63529000D01*
X132049000Y-65000000D02*
X132049000Y-63816000D01*
X132169000Y-68330000D02*
X132169000Y-67080000D01*
X131849000Y-65000000D02*
X131849000Y-63945000D01*
X132529000Y-68482000D02*
X132529000Y-67080000D01*
X130849000Y-66717000D02*
X130849000Y-65363000D01*
X131729000Y-65000000D02*
X131729000Y-64036000D01*
X133090000Y-68605000D02*
X133090000Y-67080000D01*
X132569000Y-65000000D02*
X132569000Y-63585000D01*
X131329000Y-65000000D02*
X131329000Y-64435000D01*
X131929000Y-68189000D02*
X131929000Y-67080000D01*
X131849000Y-68135000D02*
X131849000Y-67080000D01*
X131969000Y-68215000D02*
X131969000Y-67080000D01*
X131689000Y-68011000D02*
X131689000Y-67080000D01*
X131169000Y-65000000D02*
X131169000Y-64657000D01*
X132329000Y-65000000D02*
X132329000Y-63675000D01*
X131649000Y-67977000D02*
X131649000Y-67080000D01*
X132249000Y-65000000D02*
X132249000Y-63711000D01*
X131209000Y-65000000D02*
X131209000Y-64597000D01*
X132850000Y-68568000D02*
X132850000Y-67080000D01*
X130769000Y-66324000D02*
X130769000Y-65756000D01*
X131729000Y-68044000D02*
X131729000Y-67080000D01*
X131169000Y-67423000D02*
X131169000Y-67080000D01*
X132089000Y-65000000D02*
X132089000Y-63793000D01*
X132970000Y-68590000D02*
X132970000Y-67080000D01*
X132129000Y-68308000D02*
X132129000Y-67080000D01*
X131929000Y-65000000D02*
X131929000Y-63891000D01*
X131569000Y-67904000D02*
X131569000Y-67080000D01*
X131369000Y-65000000D02*
X131369000Y-64387000D01*
X131289000Y-65000000D02*
X131289000Y-64486000D01*
X132489000Y-68468000D02*
X132489000Y-67080000D01*
X132609000Y-65000000D02*
X132609000Y-63572000D01*
X131609000Y-67941000D02*
X131609000Y-67080000D01*
X132649000Y-68520000D02*
X132649000Y-67080000D01*
X132009000Y-68240000D02*
X132009000Y-67080000D01*
X131649000Y-65000000D02*
X131649000Y-64103000D01*
X131289000Y-67594000D02*
X131289000Y-67080000D01*
X132209000Y-68350000D02*
X132209000Y-67080000D01*
X132449000Y-68454000D02*
X132449000Y-67080000D01*
X132369000Y-68422000D02*
X132369000Y-67080000D01*
X131569000Y-65000000D02*
X131569000Y-64176000D01*
X131889000Y-65000000D02*
X131889000Y-63918000D01*
X131889000Y-68162000D02*
X131889000Y-67080000D01*
X132529000Y-65000000D02*
X132529000Y-63598000D01*
X131409000Y-65000000D02*
X131409000Y-64341000D01*
X133050000Y-68601000D02*
X133050000Y-67080000D01*
X135924775Y-67765000D02*
X135924775Y-67265000D01*
X132930000Y-65000000D02*
X132930000Y-63497000D01*
X132289000Y-68388000D02*
X132289000Y-67080000D01*
X131769000Y-68075000D02*
X131769000Y-67080000D01*
X131529000Y-65000000D02*
X131529000Y-64214000D01*
X131209000Y-67483000D02*
X131209000Y-67080000D01*
X133130000Y-68609000D02*
X133130000Y-67080000D01*
X131769000Y-65000000D02*
X131769000Y-64005000D01*
X132089000Y-68287000D02*
X132089000Y-67080000D01*
X133090000Y-65000000D02*
X133090000Y-63475000D01*
X131009000Y-67138000D02*
X131009000Y-64942000D01*
X132209000Y-65000000D02*
X132209000Y-63730000D01*
X133010000Y-65000000D02*
X133010000Y-63484000D01*
X132369000Y-65000000D02*
X132369000Y-63658000D01*
X130969000Y-67051000D02*
X130969000Y-65029000D01*
X131809000Y-68105000D02*
X131809000Y-67080000D01*
X132449000Y-65000000D02*
X132449000Y-63626000D01*
X135990000Y-66040000D02*
G75*
G03*
X135990000Y-66040000I-2620000J0D01*
G01*
X120607064Y-160755000D02*
X120152936Y-160755000D01*
X120607064Y-159285000D02*
X120152936Y-159285000D01*
X90591000Y-108634000D02*
X92061000Y-108634000D01*
X90591000Y-106174000D02*
X90591000Y-108634000D01*
X92061000Y-108634000D02*
X92061000Y-106174000D01*
X120152936Y-130275000D02*
X120607064Y-130275000D01*
X120152936Y-128805000D02*
X120607064Y-128805000D01*
X88051000Y-102426936D02*
X88051000Y-102881064D01*
X89521000Y-102426936D02*
X89521000Y-102881064D01*
X120607064Y-90705000D02*
X120152936Y-90705000D01*
X120607064Y-92175000D02*
X120152936Y-92175000D01*
X88149000Y-85987233D02*
X88149000Y-86279767D01*
X89169000Y-85987233D02*
X89169000Y-86279767D01*
X120152936Y-84555000D02*
X120607064Y-84555000D01*
X120152936Y-83085000D02*
X120607064Y-83085000D01*
X131529000Y-133580000D02*
X131529000Y-132794000D01*
X132930000Y-133580000D02*
X132930000Y-132077000D01*
X132489000Y-137048000D02*
X132489000Y-135660000D01*
X131609000Y-133580000D02*
X131609000Y-132719000D01*
X132850000Y-137148000D02*
X132850000Y-135660000D01*
X131089000Y-133580000D02*
X131089000Y-133369000D01*
X131249000Y-133580000D02*
X131249000Y-133120000D01*
X131209000Y-136063000D02*
X131209000Y-135660000D01*
X132049000Y-136844000D02*
X132049000Y-135660000D01*
X130809000Y-135138000D02*
X130809000Y-134102000D01*
X132690000Y-137111000D02*
X132690000Y-135660000D01*
X131089000Y-135871000D02*
X131089000Y-135660000D01*
X132009000Y-136820000D02*
X132009000Y-135660000D01*
X132730000Y-137121000D02*
X132730000Y-135660000D01*
X131809000Y-133580000D02*
X131809000Y-132555000D01*
X132049000Y-133580000D02*
X132049000Y-132396000D01*
X131169000Y-133580000D02*
X131169000Y-133237000D01*
X131489000Y-133580000D02*
X131489000Y-132835000D01*
X131289000Y-136174000D02*
X131289000Y-135660000D01*
X131969000Y-136795000D02*
X131969000Y-135660000D01*
X131049000Y-135798000D02*
X131049000Y-133442000D01*
X132890000Y-137156000D02*
X132890000Y-135660000D01*
X136174775Y-136095000D02*
X135674775Y-136095000D01*
X132129000Y-133580000D02*
X132129000Y-132352000D01*
X132529000Y-137062000D02*
X132529000Y-135660000D01*
X131849000Y-133580000D02*
X131849000Y-132525000D01*
X131889000Y-133580000D02*
X131889000Y-132498000D01*
X131129000Y-135939000D02*
X131129000Y-135660000D01*
X133290000Y-137199000D02*
X133290000Y-132041000D01*
X132970000Y-133580000D02*
X132970000Y-132070000D01*
X130849000Y-135297000D02*
X130849000Y-133943000D01*
X131129000Y-133580000D02*
X131129000Y-133301000D01*
X131369000Y-136273000D02*
X131369000Y-135660000D01*
X133370000Y-137200000D02*
X133370000Y-132040000D01*
X131329000Y-136225000D02*
X131329000Y-135660000D01*
X132770000Y-133580000D02*
X132770000Y-132109000D01*
X132449000Y-133580000D02*
X132449000Y-132206000D01*
X131289000Y-133580000D02*
X131289000Y-133066000D01*
X131449000Y-136363000D02*
X131449000Y-135660000D01*
X131969000Y-133580000D02*
X131969000Y-132445000D01*
X131769000Y-133580000D02*
X131769000Y-132585000D01*
X131929000Y-136769000D02*
X131929000Y-135660000D01*
X131649000Y-133580000D02*
X131649000Y-132683000D01*
X132649000Y-133580000D02*
X132649000Y-132140000D01*
X131929000Y-133580000D02*
X131929000Y-132471000D01*
X131729000Y-133580000D02*
X131729000Y-132616000D01*
X132609000Y-133580000D02*
X132609000Y-132152000D01*
X132810000Y-133580000D02*
X132810000Y-132100000D01*
X131489000Y-136405000D02*
X131489000Y-135660000D01*
X131569000Y-133580000D02*
X131569000Y-132756000D01*
X132690000Y-133580000D02*
X132690000Y-132129000D01*
X131169000Y-136003000D02*
X131169000Y-135660000D01*
X131249000Y-136120000D02*
X131249000Y-135660000D01*
X133130000Y-133580000D02*
X133130000Y-132051000D01*
X131729000Y-136624000D02*
X131729000Y-135660000D01*
X131769000Y-136655000D02*
X131769000Y-135660000D01*
X132529000Y-133580000D02*
X132529000Y-132178000D01*
X132569000Y-137075000D02*
X132569000Y-135660000D01*
X135924775Y-136345000D02*
X135924775Y-135845000D01*
X131329000Y-133580000D02*
X131329000Y-133015000D01*
X133170000Y-137193000D02*
X133170000Y-132047000D01*
X132329000Y-136985000D02*
X132329000Y-135660000D01*
X132930000Y-137163000D02*
X132930000Y-135660000D01*
X132850000Y-133580000D02*
X132850000Y-132092000D01*
X131209000Y-133580000D02*
X131209000Y-133177000D01*
X130889000Y-135425000D02*
X130889000Y-133815000D01*
X131369000Y-133580000D02*
X131369000Y-132967000D01*
X131849000Y-136715000D02*
X131849000Y-135660000D01*
X133010000Y-137176000D02*
X133010000Y-135660000D01*
X132329000Y-133580000D02*
X132329000Y-132255000D01*
X132289000Y-136968000D02*
X132289000Y-135660000D01*
X131529000Y-136446000D02*
X131529000Y-135660000D01*
X131689000Y-133580000D02*
X131689000Y-132649000D01*
X132249000Y-136949000D02*
X132249000Y-135660000D01*
X132289000Y-133580000D02*
X132289000Y-132272000D01*
X132730000Y-133580000D02*
X132730000Y-132119000D01*
X132249000Y-133580000D02*
X132249000Y-132291000D01*
X132369000Y-137002000D02*
X132369000Y-135660000D01*
X132970000Y-137170000D02*
X132970000Y-135660000D01*
X132169000Y-136910000D02*
X132169000Y-135660000D01*
X133210000Y-137196000D02*
X133210000Y-132044000D01*
X131449000Y-133580000D02*
X131449000Y-132877000D01*
X132489000Y-133580000D02*
X132489000Y-132192000D01*
X132009000Y-133580000D02*
X132009000Y-132420000D01*
X131809000Y-136685000D02*
X131809000Y-135660000D01*
X133090000Y-137185000D02*
X133090000Y-135660000D01*
X130929000Y-135535000D02*
X130929000Y-133705000D01*
X133050000Y-133580000D02*
X133050000Y-132059000D01*
X132089000Y-133580000D02*
X132089000Y-132373000D01*
X132209000Y-136930000D02*
X132209000Y-135660000D01*
X132369000Y-133580000D02*
X132369000Y-132238000D01*
X132569000Y-133580000D02*
X132569000Y-132165000D01*
X132649000Y-137100000D02*
X132649000Y-135660000D01*
X131689000Y-136591000D02*
X131689000Y-135660000D01*
X133010000Y-133580000D02*
X133010000Y-132064000D01*
X130769000Y-134904000D02*
X130769000Y-134336000D01*
X131409000Y-136319000D02*
X131409000Y-135660000D01*
X131889000Y-136742000D02*
X131889000Y-135660000D01*
X132449000Y-137034000D02*
X132449000Y-135660000D01*
X131009000Y-135718000D02*
X131009000Y-133522000D01*
X130969000Y-135631000D02*
X130969000Y-133609000D01*
X132409000Y-133580000D02*
X132409000Y-132222000D01*
X132609000Y-137088000D02*
X132609000Y-135660000D01*
X131409000Y-133580000D02*
X131409000Y-132921000D01*
X132770000Y-137131000D02*
X132770000Y-135660000D01*
X133090000Y-133580000D02*
X133090000Y-132055000D01*
X131649000Y-136557000D02*
X131649000Y-135660000D01*
X131569000Y-136484000D02*
X131569000Y-135660000D01*
X132810000Y-137140000D02*
X132810000Y-135660000D01*
X133330000Y-137200000D02*
X133330000Y-132040000D01*
X132209000Y-133580000D02*
X132209000Y-132310000D01*
X132409000Y-137018000D02*
X132409000Y-135660000D01*
X133250000Y-137198000D02*
X133250000Y-132042000D01*
X131609000Y-136521000D02*
X131609000Y-135660000D01*
X132169000Y-133580000D02*
X132169000Y-132330000D01*
X132129000Y-136888000D02*
X132129000Y-135660000D01*
X132890000Y-133580000D02*
X132890000Y-132084000D01*
X132089000Y-136867000D02*
X132089000Y-135660000D01*
X133050000Y-137181000D02*
X133050000Y-135660000D01*
X133130000Y-137189000D02*
X133130000Y-135660000D01*
X135990000Y-134620000D02*
G75*
G03*
X135990000Y-134620000I-2620000J0D01*
G01*
X120152936Y-60225000D02*
X120607064Y-60225000D01*
X120152936Y-61695000D02*
X120607064Y-61695000D01*
X120607064Y-136425000D02*
X120152936Y-136425000D01*
X120607064Y-137895000D02*
X120152936Y-137895000D01*
X120607064Y-69315000D02*
X120152936Y-69315000D01*
X120607064Y-67845000D02*
X120152936Y-67845000D01*
X132369000Y-87860000D02*
X132369000Y-86502000D01*
X131369000Y-90599000D02*
X131369000Y-89940000D01*
X131889000Y-91049000D02*
X131889000Y-89940000D01*
X131969000Y-87860000D02*
X131969000Y-86700000D01*
X131369000Y-87860000D02*
X131369000Y-87201000D01*
X131529000Y-90764000D02*
X131529000Y-89940000D01*
X131209000Y-90400000D02*
X131209000Y-89940000D01*
X131849000Y-87860000D02*
X131849000Y-86778000D01*
X131729000Y-87860000D02*
X131729000Y-86865000D01*
X132449000Y-91328000D02*
X132449000Y-89940000D01*
X133170000Y-91476000D02*
X133170000Y-86324000D01*
X131769000Y-90965000D02*
X131769000Y-89940000D01*
X132970000Y-91456000D02*
X132970000Y-89940000D01*
X131609000Y-87860000D02*
X131609000Y-86963000D01*
X131209000Y-87860000D02*
X131209000Y-87400000D01*
X132209000Y-87860000D02*
X132209000Y-86571000D01*
X133050000Y-91465000D02*
X133050000Y-89940000D01*
X131249000Y-87860000D02*
X131249000Y-87346000D01*
X131089000Y-90219000D02*
X131089000Y-89940000D01*
X132209000Y-91229000D02*
X132209000Y-89940000D01*
X132730000Y-91411000D02*
X132730000Y-89940000D01*
X132009000Y-91124000D02*
X132009000Y-89940000D01*
X132449000Y-87860000D02*
X132449000Y-86472000D01*
X131649000Y-87860000D02*
X131649000Y-86929000D01*
X133050000Y-87860000D02*
X133050000Y-86335000D01*
X131329000Y-87860000D02*
X131329000Y-87247000D01*
X131609000Y-90837000D02*
X131609000Y-89940000D01*
X132890000Y-91443000D02*
X132890000Y-89940000D01*
X131929000Y-91075000D02*
X131929000Y-89940000D01*
X132529000Y-91355000D02*
X132529000Y-89940000D01*
X131009000Y-90078000D02*
X131009000Y-87722000D01*
X132129000Y-87860000D02*
X132129000Y-86610000D01*
X131449000Y-90685000D02*
X131449000Y-89940000D01*
X132169000Y-87860000D02*
X132169000Y-86590000D01*
X132690000Y-87860000D02*
X132690000Y-86399000D01*
X130809000Y-89577000D02*
X130809000Y-88223000D01*
X132650000Y-91391000D02*
X132650000Y-89940000D01*
X130969000Y-89998000D02*
X130969000Y-87802000D01*
X133210000Y-91478000D02*
X133210000Y-86322000D01*
X130729000Y-89184000D02*
X130729000Y-88616000D01*
X132329000Y-87860000D02*
X132329000Y-86518000D01*
X131729000Y-90935000D02*
X131729000Y-89940000D01*
X132770000Y-91420000D02*
X132770000Y-89940000D01*
X131329000Y-90553000D02*
X131329000Y-89940000D01*
X132569000Y-87860000D02*
X132569000Y-86432000D01*
X131569000Y-90801000D02*
X131569000Y-89940000D01*
X130929000Y-89911000D02*
X130929000Y-87889000D01*
X136134775Y-90375000D02*
X135634775Y-90375000D01*
X131169000Y-90343000D02*
X131169000Y-89940000D01*
X133090000Y-87860000D02*
X133090000Y-86331000D01*
X131649000Y-90871000D02*
X131649000Y-89940000D01*
X132329000Y-91282000D02*
X132329000Y-89940000D01*
X131129000Y-87860000D02*
X131129000Y-87517000D01*
X132009000Y-87860000D02*
X132009000Y-86676000D01*
X132850000Y-91436000D02*
X132850000Y-89940000D01*
X133290000Y-91480000D02*
X133290000Y-86320000D01*
X131809000Y-87860000D02*
X131809000Y-86805000D01*
X132690000Y-91401000D02*
X132690000Y-89940000D01*
X132609000Y-91380000D02*
X132609000Y-89940000D01*
X132169000Y-91210000D02*
X132169000Y-89940000D01*
X133010000Y-87860000D02*
X133010000Y-86339000D01*
X131929000Y-87860000D02*
X131929000Y-86725000D01*
X131249000Y-90454000D02*
X131249000Y-89940000D01*
X132730000Y-87860000D02*
X132730000Y-86389000D01*
X132129000Y-91190000D02*
X132129000Y-89940000D01*
X132970000Y-87860000D02*
X132970000Y-86344000D01*
X131489000Y-87860000D02*
X131489000Y-87074000D01*
X132890000Y-87860000D02*
X132890000Y-86357000D01*
X131529000Y-87860000D02*
X131529000Y-87036000D01*
X132850000Y-87860000D02*
X132850000Y-86364000D01*
X132930000Y-91450000D02*
X132930000Y-89940000D01*
X131049000Y-90151000D02*
X131049000Y-89940000D01*
X132089000Y-91168000D02*
X132089000Y-89940000D01*
X131809000Y-90995000D02*
X131809000Y-89940000D01*
X131089000Y-87860000D02*
X131089000Y-87581000D01*
X131849000Y-91022000D02*
X131849000Y-89940000D01*
X132609000Y-87860000D02*
X132609000Y-86420000D01*
X132650000Y-87860000D02*
X132650000Y-86409000D01*
X132249000Y-87860000D02*
X132249000Y-86552000D01*
X130769000Y-89418000D02*
X130769000Y-88382000D01*
X130849000Y-89705000D02*
X130849000Y-88095000D01*
X132489000Y-91342000D02*
X132489000Y-89940000D01*
X133010000Y-91461000D02*
X133010000Y-89940000D01*
X131489000Y-90726000D02*
X131489000Y-89940000D01*
X131169000Y-87860000D02*
X131169000Y-87457000D01*
X131289000Y-87860000D02*
X131289000Y-87295000D01*
X132770000Y-87860000D02*
X132770000Y-86380000D01*
X133330000Y-91480000D02*
X133330000Y-86320000D01*
X131049000Y-87860000D02*
X131049000Y-87649000D01*
X131689000Y-90904000D02*
X131689000Y-89940000D01*
X132489000Y-87860000D02*
X132489000Y-86458000D01*
X131409000Y-90643000D02*
X131409000Y-89940000D01*
X132089000Y-87860000D02*
X132089000Y-86632000D01*
X133250000Y-91479000D02*
X133250000Y-86321000D01*
X131409000Y-87860000D02*
X131409000Y-87157000D01*
X131129000Y-90283000D02*
X131129000Y-89940000D01*
X131689000Y-87860000D02*
X131689000Y-86896000D01*
X132249000Y-91248000D02*
X132249000Y-89940000D01*
X135884775Y-90625000D02*
X135884775Y-90125000D01*
X132049000Y-91147000D02*
X132049000Y-89940000D01*
X132529000Y-87860000D02*
X132529000Y-86445000D01*
X132930000Y-87860000D02*
X132930000Y-86350000D01*
X133130000Y-91473000D02*
X133130000Y-86327000D01*
X132569000Y-91368000D02*
X132569000Y-89940000D01*
X132409000Y-91314000D02*
X132409000Y-89940000D01*
X131569000Y-87860000D02*
X131569000Y-86999000D01*
X131969000Y-91100000D02*
X131969000Y-89940000D01*
X132289000Y-91265000D02*
X132289000Y-89940000D01*
X132409000Y-87860000D02*
X132409000Y-86486000D01*
X132289000Y-87860000D02*
X132289000Y-86535000D01*
X132049000Y-87860000D02*
X132049000Y-86653000D01*
X132369000Y-91298000D02*
X132369000Y-89940000D01*
X131769000Y-87860000D02*
X131769000Y-86835000D01*
X131889000Y-87860000D02*
X131889000Y-86751000D01*
X132810000Y-91428000D02*
X132810000Y-89940000D01*
X130889000Y-89815000D02*
X130889000Y-87985000D01*
X131449000Y-87860000D02*
X131449000Y-87115000D01*
X133090000Y-91469000D02*
X133090000Y-89940000D01*
X131289000Y-90505000D02*
X131289000Y-89940000D01*
X132810000Y-87860000D02*
X132810000Y-86372000D01*
X135950000Y-88900000D02*
G75*
G03*
X135950000Y-88900000I-2620000J0D01*
G01*
X90591000Y-102426936D02*
X90591000Y-102881064D01*
X92061000Y-102426936D02*
X92061000Y-102881064D01*
X132249000Y-44493000D02*
X132249000Y-43204000D01*
X131889000Y-41124000D02*
X131889000Y-40042000D01*
X132850000Y-41124000D02*
X132850000Y-39636000D01*
X132129000Y-41124000D02*
X132129000Y-39896000D01*
X130849000Y-42841000D02*
X130849000Y-41487000D01*
X133330000Y-44744000D02*
X133330000Y-39584000D01*
X132009000Y-44364000D02*
X132009000Y-43204000D01*
X130809000Y-42682000D02*
X130809000Y-41646000D01*
X133050000Y-44725000D02*
X133050000Y-43204000D01*
X131969000Y-41124000D02*
X131969000Y-39989000D01*
X132770000Y-44675000D02*
X132770000Y-43204000D01*
X132649000Y-44644000D02*
X132649000Y-43204000D01*
X131529000Y-43990000D02*
X131529000Y-43204000D01*
X136174775Y-43639000D02*
X135674775Y-43639000D01*
X131569000Y-44028000D02*
X131569000Y-43204000D01*
X131249000Y-41124000D02*
X131249000Y-40664000D01*
X131129000Y-43483000D02*
X131129000Y-43204000D01*
X131729000Y-44168000D02*
X131729000Y-43204000D01*
X132730000Y-44665000D02*
X132730000Y-43204000D01*
X132970000Y-44714000D02*
X132970000Y-43204000D01*
X131369000Y-41124000D02*
X131369000Y-40511000D01*
X131609000Y-41124000D02*
X131609000Y-40263000D01*
X130969000Y-43175000D02*
X130969000Y-41153000D01*
X131649000Y-44101000D02*
X131649000Y-43204000D01*
X131409000Y-43863000D02*
X131409000Y-43204000D01*
X132449000Y-41124000D02*
X132449000Y-39750000D01*
X131249000Y-43664000D02*
X131249000Y-43204000D01*
X133250000Y-44742000D02*
X133250000Y-39586000D01*
X133050000Y-41124000D02*
X133050000Y-39603000D01*
X132049000Y-41124000D02*
X132049000Y-39940000D01*
X132529000Y-44606000D02*
X132529000Y-43204000D01*
X132009000Y-41124000D02*
X132009000Y-39964000D01*
X131569000Y-41124000D02*
X131569000Y-40300000D01*
X131489000Y-41124000D02*
X131489000Y-40379000D01*
X131329000Y-41124000D02*
X131329000Y-40559000D01*
X132489000Y-44592000D02*
X132489000Y-43204000D01*
X132449000Y-44578000D02*
X132449000Y-43204000D01*
X131969000Y-44339000D02*
X131969000Y-43204000D01*
X131369000Y-43817000D02*
X131369000Y-43204000D01*
X132649000Y-41124000D02*
X132649000Y-39684000D01*
X132289000Y-44512000D02*
X132289000Y-43204000D01*
X132049000Y-44388000D02*
X132049000Y-43204000D01*
X132810000Y-44684000D02*
X132810000Y-43204000D01*
X132890000Y-44700000D02*
X132890000Y-43204000D01*
X131689000Y-44135000D02*
X131689000Y-43204000D01*
X132569000Y-41124000D02*
X132569000Y-39709000D01*
X132089000Y-41124000D02*
X132089000Y-39917000D01*
X132169000Y-41124000D02*
X132169000Y-39874000D01*
X131209000Y-41124000D02*
X131209000Y-40721000D01*
X132930000Y-41124000D02*
X132930000Y-39621000D01*
X131729000Y-41124000D02*
X131729000Y-40160000D01*
X132329000Y-44529000D02*
X132329000Y-43204000D01*
X131089000Y-43415000D02*
X131089000Y-43204000D01*
X131289000Y-41124000D02*
X131289000Y-40610000D01*
X132810000Y-41124000D02*
X132810000Y-39644000D01*
X133090000Y-44729000D02*
X133090000Y-43204000D01*
X132569000Y-44619000D02*
X132569000Y-43204000D01*
X132209000Y-41124000D02*
X132209000Y-39854000D01*
X133010000Y-44720000D02*
X133010000Y-43204000D01*
X132289000Y-41124000D02*
X132289000Y-39816000D01*
X131089000Y-41124000D02*
X131089000Y-40913000D01*
X132609000Y-44632000D02*
X132609000Y-43204000D01*
X132850000Y-44692000D02*
X132850000Y-43204000D01*
X133210000Y-44740000D02*
X133210000Y-39588000D01*
X131849000Y-41124000D02*
X131849000Y-40069000D01*
X131009000Y-43262000D02*
X131009000Y-41066000D01*
X132930000Y-44707000D02*
X132930000Y-43204000D01*
X131529000Y-41124000D02*
X131529000Y-40338000D01*
X131289000Y-43718000D02*
X131289000Y-43204000D01*
X131689000Y-41124000D02*
X131689000Y-40193000D01*
X131129000Y-41124000D02*
X131129000Y-40845000D01*
X132169000Y-44454000D02*
X132169000Y-43204000D01*
X132369000Y-41124000D02*
X132369000Y-39782000D01*
X132329000Y-41124000D02*
X132329000Y-39799000D01*
X133010000Y-41124000D02*
X133010000Y-39608000D01*
X132609000Y-41124000D02*
X132609000Y-39696000D01*
X132730000Y-41124000D02*
X132730000Y-39663000D01*
X130889000Y-42969000D02*
X130889000Y-41359000D01*
X131169000Y-43547000D02*
X131169000Y-43204000D01*
X133090000Y-41124000D02*
X133090000Y-39599000D01*
X133170000Y-44737000D02*
X133170000Y-39591000D01*
X131809000Y-44229000D02*
X131809000Y-43204000D01*
X131769000Y-44199000D02*
X131769000Y-43204000D01*
X132409000Y-41124000D02*
X132409000Y-39766000D01*
X131329000Y-43769000D02*
X131329000Y-43204000D01*
X131209000Y-43607000D02*
X131209000Y-43204000D01*
X130929000Y-43079000D02*
X130929000Y-41249000D01*
X132970000Y-41124000D02*
X132970000Y-39614000D01*
X132249000Y-41124000D02*
X132249000Y-39835000D01*
X131169000Y-41124000D02*
X131169000Y-40781000D01*
X132890000Y-41124000D02*
X132890000Y-39628000D01*
X131049000Y-43342000D02*
X131049000Y-40986000D01*
X132529000Y-41124000D02*
X132529000Y-39722000D01*
X131409000Y-41124000D02*
X131409000Y-40465000D01*
X132489000Y-41124000D02*
X132489000Y-39736000D01*
X131849000Y-44259000D02*
X131849000Y-43204000D01*
X132129000Y-44432000D02*
X132129000Y-43204000D01*
X131489000Y-43949000D02*
X131489000Y-43204000D01*
X133370000Y-44744000D02*
X133370000Y-39584000D01*
X131649000Y-41124000D02*
X131649000Y-40227000D01*
X131889000Y-44286000D02*
X131889000Y-43204000D01*
X131929000Y-41124000D02*
X131929000Y-40015000D01*
X132369000Y-44546000D02*
X132369000Y-43204000D01*
X131929000Y-44313000D02*
X131929000Y-43204000D01*
X135924775Y-43889000D02*
X135924775Y-43389000D01*
X131769000Y-41124000D02*
X131769000Y-40129000D01*
X130769000Y-42448000D02*
X130769000Y-41880000D01*
X131809000Y-41124000D02*
X131809000Y-40099000D01*
X132089000Y-44411000D02*
X132089000Y-43204000D01*
X132690000Y-44655000D02*
X132690000Y-43204000D01*
X133290000Y-44743000D02*
X133290000Y-39585000D01*
X131609000Y-44065000D02*
X131609000Y-43204000D01*
X133130000Y-44733000D02*
X133130000Y-43204000D01*
X132690000Y-41124000D02*
X132690000Y-39673000D01*
X132409000Y-44562000D02*
X132409000Y-43204000D01*
X132209000Y-44474000D02*
X132209000Y-43204000D01*
X132770000Y-41124000D02*
X132770000Y-39653000D01*
X133130000Y-41124000D02*
X133130000Y-39595000D01*
X131449000Y-41124000D02*
X131449000Y-40421000D01*
X131449000Y-43907000D02*
X131449000Y-43204000D01*
X135990000Y-42164000D02*
G75*
G03*
X135990000Y-42164000I-2620000J0D01*
G01*
X93131000Y-108634000D02*
X94601000Y-108634000D01*
X94601000Y-108634000D02*
X94601000Y-106174000D01*
X93131000Y-106174000D02*
X93131000Y-108634000D01*
X120607064Y-44985000D02*
X120152936Y-44985000D01*
X120607064Y-46455000D02*
X120152936Y-46455000D01*
%LPC*%
D13*
X136850000Y-149945000D03*
X136850000Y-147405000D03*
X136850000Y-144865000D03*
D14*
X136850000Y-142325000D03*
D15*
X116840000Y-137160000D03*
X116840000Y-139700000D03*
X116840000Y-142240000D03*
X116840000Y-144780000D03*
X116840000Y-147320000D03*
X116840000Y-149860000D03*
X116840000Y-152400000D03*
X116840000Y-154940000D03*
X129540000Y-137160000D03*
X129540000Y-139700000D03*
X129540000Y-142240000D03*
X129540000Y-144780000D03*
X129540000Y-147320000D03*
X129540000Y-149860000D03*
X129540000Y-152400000D03*
X129540000Y-154940000D03*
D16*
X121380000Y-114300000D03*
X119380000Y-114300000D03*
D17*
X134620000Y-157480000D03*
D18*
X132120000Y-157480000D03*
D15*
X116840000Y-45720000D03*
X116840000Y-48260000D03*
X116840000Y-50800000D03*
X116840000Y-53340000D03*
X116840000Y-55880000D03*
X116840000Y-58420000D03*
X116840000Y-60960000D03*
X116840000Y-63500000D03*
X129540000Y-45720000D03*
X129540000Y-48260000D03*
X129540000Y-50800000D03*
X129540000Y-53340000D03*
X129540000Y-55880000D03*
X129540000Y-58420000D03*
X129540000Y-60960000D03*
X129540000Y-63500000D03*
D19*
X90818000Y-87072500D03*
X90818000Y-85247500D03*
D20*
X119380000Y-152400000D03*
X121380000Y-152400000D03*
D21*
X134561500Y-34194000D03*
D22*
X134561500Y-28194000D03*
D23*
X129861500Y-31194000D03*
D15*
X116840000Y-160020000D03*
X116840000Y-162560000D03*
X116840000Y-165100000D03*
X116840000Y-167640000D03*
X116840000Y-170180000D03*
X116840000Y-172720000D03*
X116840000Y-175260000D03*
X116840000Y-177800000D03*
X129540000Y-160020000D03*
X129540000Y-162560000D03*
X129540000Y-165100000D03*
X129540000Y-167640000D03*
X129540000Y-170180000D03*
X129540000Y-172720000D03*
X129540000Y-175260000D03*
X129540000Y-177800000D03*
X116840000Y-114300000D03*
X116840000Y-116840000D03*
X116840000Y-119380000D03*
X116840000Y-121920000D03*
X116840000Y-124460000D03*
X116840000Y-127000000D03*
X116840000Y-129540000D03*
X116840000Y-132080000D03*
X129540000Y-114300000D03*
X129540000Y-116840000D03*
X129540000Y-119380000D03*
X129540000Y-121920000D03*
X129540000Y-124460000D03*
X129540000Y-127000000D03*
X129540000Y-129540000D03*
X129540000Y-132080000D03*
D24*
X88786000Y-107849000D03*
X88786000Y-106099000D03*
D25*
X93866000Y-101654000D03*
X93866000Y-103654000D03*
D20*
X119380000Y-106680000D03*
X121380000Y-106680000D03*
X119380000Y-175260000D03*
X121380000Y-175260000D03*
D26*
X88600000Y-89800000D03*
X88600000Y-93950000D03*
X90750000Y-89825000D03*
X90750000Y-93950000D03*
D15*
X116840000Y-91440000D03*
X116840000Y-93980000D03*
X116840000Y-96520000D03*
X116840000Y-99060000D03*
X116840000Y-101600000D03*
X116840000Y-104140000D03*
X116840000Y-106680000D03*
X116840000Y-109220000D03*
X129540000Y-91440000D03*
X129540000Y-93980000D03*
X129540000Y-96520000D03*
X129540000Y-99060000D03*
X129540000Y-101600000D03*
X129540000Y-104140000D03*
X129540000Y-106680000D03*
X129540000Y-109220000D03*
D17*
X134620000Y-111760000D03*
D18*
X132120000Y-111760000D03*
D17*
X134620000Y-66040000D03*
D18*
X132120000Y-66040000D03*
D16*
X121380000Y-160020000D03*
X119380000Y-160020000D03*
D24*
X91326000Y-107849000D03*
X91326000Y-106099000D03*
D20*
X119380000Y-129540000D03*
X121380000Y-129540000D03*
D25*
X88786000Y-101654000D03*
X88786000Y-103654000D03*
D16*
X121380000Y-91440000D03*
X119380000Y-91440000D03*
D27*
X88659000Y-85271000D03*
X88659000Y-86996000D03*
D20*
X119380000Y-83820000D03*
X121380000Y-83820000D03*
D17*
X134620000Y-134620000D03*
D18*
X132120000Y-134620000D03*
D20*
X119380000Y-60960000D03*
X121380000Y-60960000D03*
D16*
X121380000Y-137160000D03*
X119380000Y-137160000D03*
X121380000Y-68580000D03*
X119380000Y-68580000D03*
D15*
X116840000Y-68580000D03*
X116840000Y-71120000D03*
X116840000Y-73660000D03*
X116840000Y-76200000D03*
X116840000Y-78740000D03*
X116840000Y-81280000D03*
X116840000Y-83820000D03*
X116840000Y-86360000D03*
X129540000Y-68580000D03*
X129540000Y-71120000D03*
X129540000Y-73660000D03*
X129540000Y-76200000D03*
X129540000Y-78740000D03*
X129540000Y-81280000D03*
X129540000Y-83820000D03*
X129540000Y-86360000D03*
D17*
X134580000Y-88900000D03*
D18*
X132080000Y-88900000D03*
D15*
X89060400Y-27401000D03*
X89060400Y-29941000D03*
X89060400Y-32481000D03*
X89060400Y-35021000D03*
X89060400Y-37561000D03*
X89060400Y-40101000D03*
X89060400Y-42641000D03*
X89060400Y-45181000D03*
X89060400Y-47721000D03*
X89060400Y-50261000D03*
X89060400Y-52801000D03*
X89060400Y-55341000D03*
X89060400Y-57881000D03*
X89060400Y-60421000D03*
X89060400Y-62961000D03*
X89060400Y-65501000D03*
X89060400Y-68041000D03*
X89060400Y-70581000D03*
X89060400Y-73121000D03*
X89060400Y-75661000D03*
X106840400Y-75661000D03*
X106840400Y-73121000D03*
X106840400Y-70581000D03*
X106840400Y-68041000D03*
X106840400Y-65501000D03*
X106840400Y-62961000D03*
X106840400Y-60421000D03*
X106840400Y-57881000D03*
X106840400Y-55341000D03*
X106840400Y-52801000D03*
X106840400Y-50261000D03*
X106840400Y-47721000D03*
X106840400Y-45181000D03*
X106840400Y-42641000D03*
X106840400Y-40101000D03*
X106840400Y-37561000D03*
X106840400Y-35021000D03*
X106840400Y-32481000D03*
X106840400Y-29941000D03*
X106840400Y-27401000D03*
D25*
X91326000Y-101654000D03*
X91326000Y-103654000D03*
D17*
X134620000Y-42164000D03*
D18*
X132120000Y-42164000D03*
D24*
X93866000Y-107849000D03*
X93866000Y-106099000D03*
D16*
X121380000Y-45720000D03*
X119380000Y-45720000D03*
D14*
X136875000Y-73800000D03*
D13*
X136875000Y-76340000D03*
X136875000Y-78880000D03*
X136875000Y-81420000D03*
D14*
X136800000Y-119450000D03*
D13*
X136800000Y-121990000D03*
X136800000Y-124530000D03*
X136800000Y-127070000D03*
D14*
X136925000Y-50850000D03*
D13*
X136925000Y-53390000D03*
X136925000Y-55930000D03*
X136925000Y-58470000D03*
D14*
X136925000Y-96500000D03*
D13*
X136925000Y-99040000D03*
X136925000Y-101580000D03*
X136925000Y-104120000D03*
D14*
X136975000Y-165125000D03*
D13*
X136975000Y-167665000D03*
X136975000Y-170205000D03*
X136975000Y-172745000D03*
M02*
