M48
; DRILL file {KiCad (6.0.7)} date Sat Feb 18 18:43:53 2023
; FORMAT={-:-/ absolute / metric / decimal}
; #@! TF.CreationDate,2023-02-18T18:43:53+09:00
; #@! TF.GenerationSoftware,Kicad,Pcbnew,(6.0.7)
; #@! TF.FileFunction,MixedPlating,1,2
FMAT,2
METRIC
; #@! TA.AperFunction,Plated,PTH,ViaDrill
T1C0.400
; #@! TA.AperFunction,Plated,PTH,ComponentDrill
T2C0.762
; #@! TA.AperFunction,Plated,PTH,ComponentDrill
T3C0.800
; #@! TA.AperFunction,Plated,PTH,ComponentDrill
T4C1.000
%
G90
G05
T1
X97.825Y-73.3
X98.0Y-32.925
X112.875Y-153.45
X112.9Y-169.325
X112.925Y-100.8
X113.0Y-146.15
X119.38Y-127.636
X125.225Y-58.325
X125.325Y-146.05
X125.725Y-79.65
X125.725Y-99.975
X125.725Y-123.75
X126.125Y-169.575
X131.325Y-24.925
X137.525Y-24.925
X137.525Y-31.15
X139.775Y-123.55
X140.25Y-146.075
X140.25Y-169.375
X140.6Y-100.025
X141.25Y-79.775
X141.575Y-58.375
T2
X89.06Y-27.401
X89.06Y-29.941
X89.06Y-32.481
X89.06Y-35.021
X89.06Y-37.561
X89.06Y-40.101
X89.06Y-42.641
X89.06Y-45.181
X89.06Y-47.721
X89.06Y-50.261
X89.06Y-52.801
X89.06Y-55.341
X89.06Y-57.881
X89.06Y-60.421
X89.06Y-62.961
X89.06Y-65.501
X89.06Y-68.041
X89.06Y-70.581
X89.06Y-73.121
X89.06Y-75.661
X106.84Y-27.401
X106.84Y-29.941
X106.84Y-32.481
X106.84Y-35.021
X106.84Y-37.561
X106.84Y-40.101
X106.84Y-42.641
X106.84Y-45.181
X106.84Y-47.721
X106.84Y-50.261
X106.84Y-52.801
X106.84Y-55.341
X106.84Y-57.881
X106.84Y-60.421
X106.84Y-62.961
X106.84Y-65.501
X106.84Y-68.041
X106.84Y-70.581
X106.84Y-73.121
X106.84Y-75.661
X116.84Y-45.72
X116.84Y-48.26
X116.84Y-50.8
X116.84Y-53.34
X116.84Y-55.88
X116.84Y-58.42
X116.84Y-60.96
X116.84Y-63.5
X116.84Y-68.58
X116.84Y-71.12
X116.84Y-73.66
X116.84Y-76.2
X116.84Y-78.74
X116.84Y-81.28
X116.84Y-83.82
X116.84Y-86.36
X116.84Y-91.44
X116.84Y-93.98
X116.84Y-96.52
X116.84Y-99.06
X116.84Y-101.6
X116.84Y-104.14
X116.84Y-106.68
X116.84Y-109.22
X116.84Y-114.3
X116.84Y-116.84
X116.84Y-119.38
X116.84Y-121.92
X116.84Y-124.46
X116.84Y-127.0
X116.84Y-129.54
X116.84Y-132.08
X116.84Y-137.16
X116.84Y-139.7
X116.84Y-142.24
X116.84Y-144.78
X116.84Y-147.32
X116.84Y-149.86
X116.84Y-152.4
X116.84Y-154.94
X116.84Y-160.02
X116.84Y-162.56
X116.84Y-165.1
X116.84Y-167.64
X116.84Y-170.18
X116.84Y-172.72
X116.84Y-175.26
X116.84Y-177.8
X129.54Y-45.72
X129.54Y-48.26
X129.54Y-50.8
X129.54Y-53.34
X129.54Y-55.88
X129.54Y-58.42
X129.54Y-60.96
X129.54Y-63.5
X129.54Y-68.58
X129.54Y-71.12
X129.54Y-73.66
X129.54Y-76.2
X129.54Y-78.74
X129.54Y-81.28
X129.54Y-83.82
X129.54Y-86.36
X129.54Y-91.44
X129.54Y-93.98
X129.54Y-96.52
X129.54Y-99.06
X129.54Y-101.6
X129.54Y-104.14
X129.54Y-106.68
X129.54Y-109.22
X129.54Y-114.3
X129.54Y-116.84
X129.54Y-119.38
X129.54Y-121.92
X129.54Y-124.46
X129.54Y-127.0
X129.54Y-129.54
X129.54Y-132.08
X129.54Y-137.16
X129.54Y-139.7
X129.54Y-142.24
X129.54Y-144.78
X129.54Y-147.32
X129.54Y-149.86
X129.54Y-152.4
X129.54Y-154.94
X129.54Y-160.02
X129.54Y-162.56
X129.54Y-165.1
X129.54Y-167.64
X129.54Y-170.18
X129.54Y-172.72
X129.54Y-175.26
X129.54Y-177.8
T3
X132.08Y-88.9
X132.12Y-42.164
X132.12Y-66.04
X132.12Y-111.76
X132.12Y-134.62
X132.12Y-157.48
X134.58Y-88.9
X134.62Y-42.164
X134.62Y-66.04
X134.62Y-111.76
X134.62Y-134.62
X134.62Y-157.48
T4
X136.8Y-119.45
X136.8Y-121.99
X136.8Y-124.53
X136.8Y-127.07
X136.85Y-142.325
X136.85Y-144.865
X136.85Y-147.405
X136.85Y-149.945
X136.875Y-73.8
X136.875Y-76.34
X136.875Y-78.88
X136.875Y-81.42
X136.925Y-50.85
X136.925Y-53.39
X136.925Y-55.93
X136.925Y-58.47
X136.925Y-96.5
X136.925Y-99.04
X136.925Y-101.58
X136.925Y-104.12
X136.975Y-165.125
X136.975Y-167.665
X136.975Y-170.205
X136.975Y-172.745
T4
G00X129.862Y-30.194
M15
G01X129.862Y-32.194
M16
G05
G00X135.561Y-28.194
M15
G01X133.561Y-28.194
M16
G05
G00X135.561Y-34.194
M15
G01X133.561Y-34.194
M16
G05
T0
M30
