G04 #@! TF.GenerationSoftware,KiCad,Pcbnew,(6.0.7)*
G04 #@! TF.CreationDate,2023-02-18T18:42:52+09:00*
G04 #@! TF.ProjectId,driver,64726976-6572-42e6-9b69-6361645f7063,rev?*
G04 #@! TF.SameCoordinates,Original*
G04 #@! TF.FileFunction,Paste,Top*
G04 #@! TF.FilePolarity,Positive*
%FSLAX46Y46*%
G04 Gerber Fmt 4.6, Leading zero omitted, Abs format (unit mm)*
G04 Created by KiCad (PCBNEW (6.0.7)) date 2023-02-18 18:42:52*
%MOMM*%
%LPD*%
G01*
G04 APERTURE LIST*
G04 Aperture macros list*
%AMRoundRect*
0 Rectangle with rounded corners*
0 $1 Rounding radius*
0 $2 $3 $4 $5 $6 $7 $8 $9 X,Y pos of 4 corners*
0 Add a 4 corners polygon primitive as box body*
4,1,4,$2,$3,$4,$5,$6,$7,$8,$9,$2,$3,0*
0 Add four circle primitives for the rounded corners*
1,1,$1+$1,$2,$3*
1,1,$1+$1,$4,$5*
1,1,$1+$1,$6,$7*
1,1,$1+$1,$8,$9*
0 Add four rect primitives between the rounded corners*
20,1,$1+$1,$2,$3,$4,$5,0*
20,1,$1+$1,$4,$5,$6,$7,0*
20,1,$1+$1,$6,$7,$8,$9,0*
20,1,$1+$1,$8,$9,$2,$3,0*%
G04 Aperture macros list end*
%ADD10RoundRect,0.250000X0.350000X0.450000X-0.350000X0.450000X-0.350000X-0.450000X0.350000X-0.450000X0*%
%ADD11RoundRect,0.237500X0.237500X-0.250000X0.237500X0.250000X-0.237500X0.250000X-0.237500X-0.250000X0*%
%ADD12RoundRect,0.250000X-0.350000X-0.450000X0.350000X-0.450000X0.350000X0.450000X-0.350000X0.450000X0*%
%ADD13RoundRect,0.237500X0.237500X-0.287500X0.237500X0.287500X-0.237500X0.287500X-0.237500X-0.287500X0*%
%ADD14RoundRect,0.250000X-0.450000X0.350000X-0.450000X-0.350000X0.450000X-0.350000X0.450000X0.350000X0*%
%ADD15R,0.650000X1.050000*%
%ADD16RoundRect,0.237500X-0.237500X0.300000X-0.237500X-0.300000X0.237500X-0.300000X0.237500X0.300000X0*%
G04 APERTURE END LIST*
D10*
X121380000Y-114300000D03*
X119380000Y-114300000D03*
D11*
X90818000Y-87072500D03*
X90818000Y-85247500D03*
D12*
X119380000Y-152400000D03*
X121380000Y-152400000D03*
D13*
X88786000Y-107849000D03*
X88786000Y-106099000D03*
D14*
X93866000Y-101654000D03*
X93866000Y-103654000D03*
D12*
X119380000Y-106680000D03*
X121380000Y-106680000D03*
X119380000Y-175260000D03*
X121380000Y-175260000D03*
D15*
X88600000Y-89800000D03*
X88600000Y-93950000D03*
X90750000Y-89825000D03*
X90750000Y-93950000D03*
D10*
X121380000Y-160020000D03*
X119380000Y-160020000D03*
D13*
X91326000Y-107849000D03*
X91326000Y-106099000D03*
D12*
X119380000Y-129540000D03*
X121380000Y-129540000D03*
D14*
X88786000Y-101654000D03*
X88786000Y-103654000D03*
D10*
X121380000Y-91440000D03*
X119380000Y-91440000D03*
D16*
X88659000Y-85271000D03*
X88659000Y-86996000D03*
D12*
X119380000Y-83820000D03*
X121380000Y-83820000D03*
X119380000Y-60960000D03*
X121380000Y-60960000D03*
D10*
X121380000Y-137160000D03*
X119380000Y-137160000D03*
X121380000Y-68580000D03*
X119380000Y-68580000D03*
D14*
X91326000Y-101654000D03*
X91326000Y-103654000D03*
D13*
X93866000Y-107849000D03*
X93866000Y-106099000D03*
D10*
X121380000Y-45720000D03*
X119380000Y-45720000D03*
M02*
